<svg width="24" height="24" viewBox="0 0 24 24" fill="none" xmlns="http://www.w3.org/2000/svg">
<path d="M8.32888 11.9998C8.32888 9.97997 9.97722 8.33164 11.997 8.33164C14.0169 8.33164 15.6652 9.97997 15.6652 11.9998C15.6652 14.0196 14.0169 15.668 11.997 15.668C9.97722 15.668 8.32888 14.0196 8.32888 11.9998Z" fill="white"/>
<path fill-rule="evenodd" clip-rule="evenodd" d="M22.9992 11.4442C22.999 11.6292 22.9988 11.8144 22.9988 11.9998C22.9988 12.2071 22.9991 12.4142 22.9994 12.6211C23.0013 13.9299 23.0033 15.231 22.9272 16.5403C22.8419 18.3014 22.4429 19.8617 21.1523 21.1523C19.8645 22.4402 18.3014 22.8419 16.5403 22.9272C15.2091 23.0021 13.8864 23.0007 12.5554 22.9992C12.3704 22.999 12.1852 22.9988 11.9998 22.9988C11.8148 22.9988 11.6299 22.999 11.4452 22.9992C10.116 23.0007 8.79296 23.0021 7.45931 22.9272C5.69815 22.8419 4.13788 22.4429 2.84728 21.1523C1.55944 19.8645 1.15767 18.3014 1.07237 16.5403C0.997468 15.209 0.998936 13.8842 1.00041 12.5545C1.00061 12.3697 1.00082 12.1848 1.00082 11.9998C1.00082 11.8148 1.00061 11.6299 1.00041 11.4452C0.998936 10.116 0.997469 8.79295 1.07237 7.45931C1.15767 5.69815 1.55668 4.13788 2.84728 2.84728C4.13513 1.55944 5.69815 1.15767 7.45931 1.07237C8.79049 0.997472 10.1132 0.998936 11.4442 1.00041C11.6292 1.00061 11.8144 1.00082 11.9998 1.00082C12.1848 1.00082 12.3697 1.00061 12.5544 1.00041C13.8836 0.998936 15.2066 0.997469 16.5403 1.07237C18.3014 1.15767 19.8617 1.55668 21.1523 2.84728C22.4402 4.13513 22.8419 5.69815 22.9272 7.45931C23.0021 8.79049 23.0007 10.1132 22.9992 11.4442ZM6.35309 11.9998C6.35309 15.1231 8.87374 17.6438 11.997 17.6438C15.1203 17.6438 17.641 15.1231 17.641 11.9998C17.641 8.87649 15.1203 6.35584 11.997 6.35584C8.87374 6.35584 6.35309 8.87649 6.35309 11.9998ZM18.6014 6.71602C19.3309 6.71602 19.9222 6.12465 19.9222 5.39515C19.9222 4.66566 19.3309 4.07429 18.6014 4.07429C17.8719 4.07429 17.2805 4.66566 17.2805 5.39515C17.2805 6.12465 17.8719 6.71602 18.6014 6.71602Z" fill="white"/>
</svg>
