<svg width="24" height="24" viewBox="0 0 24 24" fill="none" xmlns="http://www.w3.org/2000/svg">
<path d="M6.02222 10.6556C7.62222 13.8 10.2 16.3667 13.3444 17.9778L15.7889 15.5333C16.0889 15.2333 16.5333 15.1333 16.9222 15.2667C18.1667 15.6778 19.5111 15.9 20.8889 15.9C21.5 15.9 22 16.4 22 17.0111V20.8889C22 21.5 21.5 22 20.8889 22C10.4556 22 2 13.5444 2 3.11111C2 2.5 2.5 2 3.11111 2H7C7.61111 2 8.11111 2.5 8.11111 3.11111C8.11111 4.5 8.33333 5.83333 8.74444 7.07778C8.86667 7.46667 8.77778 7.9 8.46667 8.21111L6.02222 10.6556Z" fill="white"/>
</svg>
