<svg width="24" height="24" viewBox="0 0 24 24" fill="none" xmlns="http://www.w3.org/2000/svg">
<path fill-rule="evenodd" clip-rule="evenodd" d="M4.20333 3.26139C6.32727 1.31529 10.1241 1.02563 11.8887 1.00179C12.4772 0.993542 12.8402 1.01646 12.8402 1.01646C17.7628 1.03479 19.9628 2.63897 20.5128 3.14314L20.5219 3.14497C22.337 4.72165 23.3453 8.20501 22.667 13.7335C22.0653 18.6142 18.6598 19.4732 17.5206 19.7605C17.4101 19.7884 17.3209 19.8109 17.2577 19.8312C16.946 19.932 14.2418 20.6094 10.7126 20.3161L9.42929 21.7644C9.31056 21.8911 9.20003 22.0163 9.09469 22.1357C8.59001 22.7076 8.20422 23.1448 7.60511 22.9552C7.01844 22.7719 7.05327 21.8827 7.05327 21.8827V19.6643C1.8924 18.2059 1.95657 12.8525 2.01157 10.0017C2.07574 7.13983 2.62666 4.8289 4.20333 3.26139ZM12.2801 4.94062C12.244 4.9405 12.2083 4.9475 12.1749 4.96122C12.1416 4.97494 12.1113 4.99511 12.0857 5.02057C12.0602 5.04604 12.0399 5.07629 12.0261 5.10961C12.0122 5.14292 12.0051 5.17864 12.0051 5.21471C12.0051 5.28764 12.0341 5.35759 12.0857 5.40916C12.1372 5.46073 12.2072 5.48971 12.2801 5.48971C12.9616 5.47671 13.6389 5.59881 14.273 5.84897C14.907 6.09913 15.4853 6.4724 15.9743 6.94722C16.9735 7.91889 17.4602 9.22057 17.4786 10.9256C17.4786 10.9617 17.4857 10.9975 17.4995 11.0308C17.5133 11.0642 17.5336 11.0945 17.5591 11.12C17.5847 11.1456 17.615 11.1658 17.6483 11.1796C17.6817 11.1935 17.7175 11.2006 17.7536 11.2006V11.1923C17.8265 11.1923 17.8965 11.1634 17.948 11.1118C17.9996 11.0602 18.0286 10.9903 18.0286 10.9173C18.0626 10.1155 17.933 9.31514 17.6478 8.565C17.3625 7.81485 16.9276 7.13062 16.3694 6.55397C15.2786 5.49062 13.9026 4.94062 12.2801 4.94062ZM8.65559 5.57312C8.46065 5.54535 8.26204 5.5841 8.09184 5.68313H8.08084C7.705 5.90313 7.3585 6.17813 7.0285 6.5448C6.781 6.83813 6.64258 7.13055 6.60591 7.41472C6.58434 7.58138 6.6 7.75076 6.65175 7.91064L6.67008 7.91981C6.95263 8.75045 7.3213 9.54924 7.77009 10.3032C8.35182 11.359 9.06654 12.3359 9.89677 13.2099L9.92427 13.2466L9.96094 13.2741L9.98844 13.3016L10.0159 13.3291C10.8934 14.1614 11.8729 14.8791 12.931 15.4649C14.141 16.1249 14.8761 16.4366 15.3161 16.5649V16.5741C15.4445 16.6108 15.5618 16.6291 15.681 16.6291C16.0566 16.6017 16.4122 16.4494 16.6911 16.1964C17.0487 15.8756 17.3328 15.5199 17.5437 15.1441V15.1349C17.7545 14.7408 17.6812 14.364 17.3787 14.1073C16.769 13.574 16.109 13.1012 15.4078 12.6957C14.9403 12.439 14.4636 12.5948 14.2711 12.8515L13.8586 13.3731C13.6478 13.6298 13.2628 13.5931 13.2628 13.5931L13.2518 13.6023C10.3918 12.8689 9.63093 9.97315 9.63093 9.97315C9.63093 9.97315 9.59427 9.57899 9.8601 9.37732L10.3734 8.96482C10.6209 8.76315 10.7951 8.28648 10.5293 7.81897C10.1242 7.11748 9.65142 6.45737 9.1176 5.84813C9.00148 5.70411 8.83755 5.60654 8.65559 5.57312ZM12.5617 6.47016C12.6131 6.41841 12.6829 6.38921 12.7559 6.38896C12.7687 6.38806 12.7816 6.38806 12.7944 6.38896C13.986 6.47147 14.9211 6.88397 15.5902 7.61731C16.2594 8.35064 16.5986 9.26732 16.5711 10.3582C16.5712 10.3943 16.5642 10.4302 16.5504 10.4637C16.5366 10.4971 16.5164 10.5276 16.4908 10.5532C16.4653 10.5788 16.4349 10.5992 16.4015 10.6131C16.3681 10.6269 16.3323 10.6341 16.2961 10.6341L16.2869 10.6231C16.2141 10.6231 16.1443 10.5942 16.0928 10.5429C16.0412 10.4915 16.0121 10.4218 16.0119 10.349C16.0388 9.92111 15.9796 9.49218 15.8379 9.08754C15.6962 8.68291 15.4748 8.31078 15.1869 7.99314C14.5487 7.334 13.6751 6.95489 12.7577 6.93897C12.6848 6.93921 12.6147 6.91047 12.563 6.85907C12.5112 6.80767 12.482 6.73782 12.4818 6.66488C12.4815 6.59195 12.5103 6.5219 12.5617 6.47016ZM13.205 7.87306C13.1683 7.87197 13.1316 7.87815 13.0972 7.89122C13.0629 7.90429 13.0314 7.92401 13.0046 7.94925C12.9778 7.97448 12.9563 8.00475 12.9412 8.03831C12.9261 8.07187 12.9178 8.10808 12.9167 8.14485C12.9157 8.18163 12.9218 8.21826 12.9349 8.25265C12.948 8.28704 12.9677 8.31852 12.9929 8.34529C13.0182 8.37206 13.0484 8.3936 13.082 8.40867C13.1156 8.42374 13.1518 8.43206 13.1885 8.43314C14.096 8.47898 14.5361 8.93731 14.5911 9.88149C14.5934 9.95282 14.6235 10.0204 14.6748 10.07C14.7261 10.1197 14.7947 10.1474 14.8661 10.1473H14.8752C14.9122 10.1462 14.9485 10.1376 14.982 10.1221C15.0156 10.1066 15.0456 10.0845 15.0704 10.0571C15.0953 10.0297 15.1143 9.99765 15.1264 9.96274C15.1386 9.92784 15.1435 9.89085 15.1411 9.85399C15.0769 8.62565 14.4077 7.93722 13.216 7.87306H13.205Z" fill="white"/>
</svg>
