<svg width="22" height="20" viewBox="0 0 22 20" fill="none" xmlns="http://www.w3.org/2000/svg">
<path d="M12.7526 19.1414H9.34035V10.762H6.48962V7.47934H9.34035V5.06054C9.30295 4.47608 9.38729 3.89021 9.58803 3.34003C9.78878 2.78984 10.1015 2.28732 10.5066 1.86428C10.925 1.48093 11.4153 1.1843 11.9491 0.991547C12.4829 0.798792 13.0496 0.713725 13.6164 0.741262C14.4678 0.731225 15.3189 0.774502 16.1648 0.87084V3.76476L14.3939 3.80795C14.1628 3.78045 13.9285 3.80076 13.7056 3.86764C13.4827 3.93451 13.2759 4.04652 13.0981 4.19669C12.8437 4.52983 12.7207 4.94492 12.7526 5.36289V7.47934H16.0352L15.6033 10.762H12.7526V19.1414Z" fill="#333333"/>
</svg>
