<svg width="28" height="28" viewBox="0 0 28 28" fill="none" xmlns="http://www.w3.org/2000/svg">
<path fill-rule="evenodd" clip-rule="evenodd" d="M26.595 15C26.6579 14.6695 26.715 14.3303 26.7663 13.9825C26.9915 12.4571 27.0539 11.1004 26.9536 9.91266C26.8534 8.72489 26.6167 7.6885 26.2436 6.80349C25.8818 5.90684 25.3939 5.15575 24.78 4.55022C24.1678 3.93304 23.4568 3.43814 22.647 3.0655C21.8466 2.69287 20.9643 2.42504 19.9999 2.26201C19.0373 2.08734 18.0191 2 16.9451 2H4.54262L2.6237 15H7.91259L9.06059 7.22271H15.6325C16.8775 7.22271 17.9118 7.36244 18.7354 7.64192C19.5607 7.90975 20.1982 8.32314 20.6479 8.8821C21.1088 9.4294 21.3954 10.1281 21.5075 10.9782C21.6291 11.8282 21.6048 12.8297 21.4347 13.9825C21.3825 14.3359 21.3208 14.6751 21.2496 15H26.595ZM26.2708 16.437L20.6199 16.9883C20.2569 17.8378 19.7626 18.5476 19.137 19.1179C18.5223 19.6769 17.7619 20.0961 16.8558 20.3755C15.9514 20.6434 14.8767 20.7773 13.6317 20.7773H7.0598L7.42913 18.2752L2.06297 18.7987L1 26H13.431C14.5049 26 15.5481 25.9185 16.5606 25.7555C17.5748 25.5808 18.5371 25.3071 19.4474 24.9345C20.3578 24.5619 21.2054 24.067 21.9902 23.4498C22.7846 22.8326 23.4942 22.0815 24.1191 21.1965C24.7534 20.3115 25.2961 19.2751 25.747 18.0873C25.9427 17.5688 26.1173 17.0187 26.2708 16.437Z" fill="url(#paint0_linear)"/>
<defs>
<linearGradient id="paint0_linear" x1="-0.0496804" y1="34.347" x2="26.5413" y2="35.3058" gradientUnits="userSpaceOnUse">
<stop stop-color="#EB5757"/>
<stop offset="1" stop-color="#E62887"/>
</linearGradient>
</defs>
</svg>
