<svg width="23" height="20" viewBox="0 0 23 20" fill="none" xmlns="http://www.w3.org/2000/svg">
<path d="M20.1006 5.86439V6.42611C20.0981 7.97118 19.8183 9.5027 19.2749 10.9447C18.7252 12.4254 17.9304 13.7986 16.9253 15.0045C15.8385 16.2833 14.4901 17.303 12.9753 17.9916C11.3043 18.7692 9.48609 19.1615 7.64989 19.1406C5.27424 19.158 2.94542 18.4658 0.949951 17.1492C1.28278 17.1833 1.63281 17.2003 2.00002 17.2003C3.97407 17.2209 5.89618 16.5546 7.4501 15.3111C6.51821 15.2903 5.61672 14.9686 4.87498 14.3921C4.14799 13.8473 3.61302 13.0771 3.34992 12.1963C3.61135 12.2642 3.88004 12.2985 4.14979 12.2985C4.54195 12.2999 4.93128 12.2307 5.29993 12.0941C4.31592 11.8998 3.43059 11.3572 2.79987 10.5618C2.14534 9.77982 1.79011 8.78229 1.79985 7.75358V7.70248C2.41751 8.03883 3.10068 8.2307 3.7999 8.26421C3.1888 7.86614 2.68837 7.31407 2.34683 6.66118C2.00529 6.00829 1.83415 5.27658 1.84988 4.53654C1.84312 3.7455 2.05083 2.96798 2.45001 2.29003C3.54227 3.64543 4.89519 4.7576 6.4251 5.55779C7.98474 6.37761 9.69788 6.84774 11.4498 6.93671C11.3834 6.60055 11.35 6.25846 11.3501 5.91553C11.3509 4.73759 11.8094 3.60809 12.625 2.77516C13.4406 1.94223 14.5466 1.47397 15.7001 1.47325C16.2983 1.46125 16.8924 1.57777 17.4437 1.81525C17.995 2.05274 18.4913 2.40589 18.9003 2.85181C19.8848 2.65328 20.8307 2.29101 21.7003 1.77946C21.379 2.81987 20.6817 3.69624 19.7503 4.23038C20.6268 4.13441 21.4854 3.91084 22.3 3.56646C21.6987 4.45334 20.9551 5.23023 20.1006 5.86439Z" fill="#333333"/>
</svg>
