<svg width="22" height="20" viewBox="0 0 22 20" fill="none" xmlns="http://www.w3.org/2000/svg">
<path fill-rule="evenodd" clip-rule="evenodd" d="M18.4502 1.95128C17.9689 1.49511 16.0205 0.0345762 11.6774 0.0145689C11.6774 0.0145689 6.55801 -0.305548 4.06236 2.05532C2.67286 3.48784 2.18382 5.5806 2.13337 8.18156C2.08291 10.7785 2.01693 15.6483 6.56966 16.9688H6.57354L6.56966 18.9815C6.56966 18.9815 6.54249 19.7978 7.06258 19.9619C7.58809 20.1291 7.93466 19.7233 8.38554 19.1954C8.47405 19.0917 8.56686 18.9831 8.66554 18.8735C8.99545 18.5053 9.44956 17.9691 9.79499 17.557C12.9078 17.8251 15.3025 17.2089 15.5742 17.1168C15.631 17.0977 15.7118 17.0764 15.8121 17.05C16.8219 16.7842 19.8144 15.9965 20.3404 11.5668C20.9381 6.55696 20.0493 3.3838 18.4502 1.95128ZM13.4667 8.32566C13.3386 8.32566 13.2299 8.22162 13.2222 8.08557C13.1795 7.22526 12.7874 6.8051 11.9879 6.76109C11.8521 6.75309 11.7473 6.63304 11.755 6.49299C11.7628 6.35294 11.8792 6.2449 12.0151 6.2529C13.0708 6.31293 13.6607 6.93715 13.7151 8.05756C13.7228 8.19761 13.618 8.31766 13.4822 8.32166C13.4744 8.32566 13.4706 8.32566 13.4667 8.32566ZM14.7203 8.75794H14.7242C14.8562 8.75794 14.9687 8.64991 14.9726 8.50985C14.992 7.52149 14.7048 6.68519 14.111 6.01694C13.521 5.3527 12.6943 4.97656 11.6464 4.89653C11.5105 4.88453 11.3941 4.98857 11.3824 5.12862C11.3708 5.26867 11.4717 5.38871 11.6075 5.40072C12.5352 5.46874 13.2377 5.78086 13.7461 6.35707C14.2585 6.93328 14.4991 7.63353 14.4797 8.49785C14.4758 8.6379 14.5845 8.75394 14.7203 8.75794ZM16.0128 9.27799C15.8769 9.27799 15.7683 9.16595 15.7683 9.0259C15.7566 7.47733 15.3258 6.2969 14.4486 5.41258C13.5831 4.54026 12.4847 4.0961 11.1923 4.08409C11.0564 4.08409 10.9477 3.96805 10.9477 3.828C10.9477 3.68795 11.0603 3.57591 11.1923 3.57591C12.6167 3.58791 13.8276 4.08009 14.7863 5.04845C15.7489 6.0168 16.2418 7.35329 16.2573 9.0179C16.2612 9.16195 16.1525 9.27799 16.0128 9.27799ZM12.5779 11.2547C12.3916 11.4908 12.0461 11.4588 12.0461 11.4588C9.52331 10.7985 8.85185 8.16555 8.85185 8.16555C8.85185 8.16555 8.8208 7.80942 9.0498 7.61735L9.50391 7.24521C9.72902 7.06515 9.87263 6.62899 9.64363 6.20483C9.51555 5.96875 9.25939 5.54459 9.06921 5.27649C8.86738 4.99239 8.39775 4.41218 8.39775 4.41218C8.16875 4.13608 7.83884 4.07205 7.48953 4.26012H7.48177C7.15186 4.45219 6.84136 4.70829 6.55414 5.03641C6.55414 5.03841 6.55317 5.03941 6.5522 5.04041C6.55123 5.04141 6.55026 5.04241 6.55026 5.04441C6.33679 5.31251 6.21259 5.5726 6.18154 5.8327C6.17378 5.86471 6.17378 5.90072 6.17378 5.94874C6.17378 6.06078 6.1893 6.17282 6.22423 6.28486L6.23588 6.29287C6.34455 6.68901 6.61624 7.35325 7.21008 8.46166C7.59432 9.18192 7.98633 9.78214 8.37834 10.2863C8.58405 10.5544 8.81692 10.8265 9.08473 11.1066L9.19341 11.2187C9.4651 11.4988 9.72902 11.7349 9.98907 11.9469C10.482 12.3511 11.0603 12.7552 11.7589 13.1514C12.8302 13.7636 13.4744 14.0437 13.8626 14.1557L13.8703 14.1677C13.979 14.2038 14.0877 14.2198 14.1964 14.2198C14.2429 14.2198 14.2779 14.2198 14.3089 14.2118C14.5573 14.1838 14.8135 14.0557 15.0735 13.8316C15.0755 13.8316 15.0764 13.8306 15.0774 13.8296C15.0784 13.8286 15.0794 13.8276 15.0813 13.8276C15.3957 13.5315 15.648 13.2114 15.8343 12.8713V12.8633C16.0167 12.4991 15.9546 12.159 15.6868 11.9269C15.6829 11.9229 15.124 11.4428 14.8484 11.2347C14.5923 11.0386 14.177 10.7745 13.948 10.6425C13.5365 10.4064 13.1135 10.5544 12.9388 10.7865L12.5779 11.2547Z" fill="#333333"/>
</svg>
