<?xml version="1.0" standalone="no"?>
<!DOCTYPE svg PUBLIC "-//W3C//DTD SVG 20010904//EN"
 "http://www.w3.org/TR/2001/REC-SVG-20010904/DTD/svg10.dtd">
<svg version="1.0" xmlns="http://www.w3.org/2000/svg"
 width="700.000000pt" height="700.000000pt" viewBox="0 0 700.000000 700.000000"
 preserveAspectRatio="xMidYMid meet">
<metadata>
Created by potrace 1.11, written by Peter Selinger 2001-2013
</metadata>
<g transform="translate(0.000000,700.000000) scale(0.100000,-0.100000)"
fill="#000000" stroke="none">
<path d="M1135 6488 c-2 -7 -9 -49 -15 -93 -6 -44 -13 -91 -15 -105 -3 -14 -9
-59 -15 -100 -6 -41 -12 -86 -15 -100 -4 -23 -29 -197 -41 -280 -2 -20 -7 -47
-9 -60 -3 -14 -8 -43 -10 -65 -3 -22 -7 -51 -10 -65 -2 -14 -7 -45 -10 -70 -3
-25 -12 -85 -20 -135 -8 -49 -17 -112 -21 -140 -3 -27 -8 -58 -10 -69 -2 -10
-6 -44 -10 -75 -3 -31 -8 -59 -10 -62 -2 -3 -6 -30 -9 -60 -3 -30 -10 -79 -15
-109 -5 -30 -16 -102 -24 -160 -8 -58 -17 -118 -20 -135 -2 -16 -10 -66 -16
-110 -16 -111 -20 -136 -25 -165 -3 -14 -7 -41 -9 -60 -3 -19 -14 -98 -26
-175 -11 -77 -23 -158 -26 -180 -3 -22 -9 -65 -14 -95 -6 -30 -12 -77 -15
-105 -3 -27 -8 -57 -10 -65 -2 -8 -7 -42 -11 -75 -3 -33 -8 -62 -9 -65 -2 -3
-6 -29 -10 -59 -4 -30 -8 -61 -10 -70 -2 -9 -6 -42 -10 -74 l-7 -57 661 0
c522 0 661 3 662 13 0 6 2 19 3 27 2 8 6 35 9 60 4 25 9 61 12 80 3 19 7 53
10 75 3 22 9 65 15 95 5 30 12 75 15 100 3 25 8 56 10 70 2 14 7 45 10 70 3
25 8 56 10 70 2 14 7 43 10 65 3 23 7 50 9 60 3 18 15 100 21 150 2 11 11 70
20 130 24 164 74 500 86 580 5 39 12 81 14 95 2 14 9 59 15 100 6 41 13 82 15
90 4 13 113 15 922 14 505 0 950 -4 988 -8 150 -15 156 -16 250 -32 17 -3 59
-12 95 -20 36 -8 68 -15 72 -15 15 0 174 -58 233 -84 153 -68 320 -212 405
-350 52 -84 110 -228 124 -305 2 -14 7 -36 10 -50 27 -105 38 -407 22 -580
-17 -181 -20 -203 -42 -330 -3 -19 -8 -46 -10 -60 -6 -33 -14 -71 -20 -92 -5
-17 31 -18 665 -18 369 0 671 2 671 4 0 2 7 39 15 82 14 79 38 245 51 359 3
33 8 68 10 78 25 136 25 723 -1 879 -5 33 -13 86 -21 143 -3 28 -8 53 -10 56
-2 3 -6 21 -9 40 -40 232 -169 548 -305 749 -151 223 -394 432 -655 563 -43
21 -83 39 -220 98 -74 32 -363 111 -450 124 -39 5 -56 8 -115 20 -48 9 -117
18 -225 30 -33 3 -78 9 -100 12 -22 3 -813 8 -1758 10 -1401 3 -1718 2 -1722
-9z"/>
<path d="M6488 2885 c-2 -2 -40 -6 -85 -9 -46 -4 -91 -9 -100 -10 -10 -2 -54
-7 -98 -10 -44 -4 -96 -9 -115 -11 -19 -2 -66 -7 -105 -10 -79 -7 -139 -13
-205 -20 -25 -3 -70 -7 -100 -10 -30 -3 -76 -7 -102 -10 -27 -3 -72 -7 -100
-10 -29 -3 -73 -8 -98 -10 -128 -13 -177 -18 -198 -18 -20 -1 -32 -18 -72 -97
-126 -251 -285 -430 -510 -576 -75 -49 -97 -61 -200 -108 -115 -52 -332 -114
-465 -132 -74 -10 -196 -24 -260 -30 -74 -7 -1868 -12 -1897 -6 -10 3 -16 7
-14 11 3 4 9 42 15 86 6 44 13 91 16 105 2 14 6 43 10 65 3 22 10 67 15 100 5
33 11 78 15 100 3 22 8 54 10 70 3 17 7 43 10 59 l4 28 -72 -6 c-122 -12 -160
-16 -206 -22 -25 -3 -70 -7 -100 -9 -31 -3 -74 -7 -96 -9 -22 -3 -71 -8 -110
-11 -38 -4 -80 -8 -91 -10 -12 -2 -61 -6 -110 -10 -49 -4 -97 -9 -107 -11 -10
-2 -53 -6 -95 -9 -42 -4 -90 -8 -107 -10 -236 -23 -233 -23 -243 -29 -8 -5
-16 -44 -28 -146 -2 -19 -6 -44 -8 -55 -3 -11 -8 -42 -11 -70 -3 -27 -10 -75
-15 -105 -5 -30 -11 -71 -14 -90 -2 -19 -12 -84 -21 -145 -9 -60 -18 -123 -20
-140 -3 -16 -11 -75 -19 -130 -15 -101 -24 -160 -31 -205 -4 -25 -32 -213 -41
-279 -2 -19 -6 -46 -9 -60 -4 -25 -29 -187 -40 -263 -3 -21 -7 -54 -10 -73
l-5 -36 1732 4 c953 2 1749 6 1768 10 19 3 67 8 105 12 39 3 102 11 140 16 39
6 88 12 110 15 82 10 324 66 455 106 307 91 573 217 815 386 100 70 81 55 205
160 284 241 505 530 695 907 113 223 202 451 268 687 l24 88 -38 -2 c-22 -1
-40 -2 -41 -3z"/>
</g>
</svg>
