<svg width="600" height="361" viewBox="0 0 600 361" fill="none" xmlns="http://www.w3.org/2000/svg">
<mask id="mask0" mask-type="alpha" maskUnits="userSpaceOnUse" x="0" y="0" width="600" height="361">
<rect width="600" height="361" fill="#C4C4C4"/>
</mask>
<g mask="url(#mask0)">
<line x1="-11.7516" y1="169.031" x2="602.304" y2="326.481" stroke="#758595" stroke-width="2"/>
<line x1="-13.7516" y1="175.031" x2="600.304" y2="332.481" stroke="#758595" stroke-width="2"/>
<line x1="404.953" y1="282.302" x2="379.953" y2="361.302" stroke="#758595" stroke-width="2"/>
<path d="M407 276.5L411 264.5" stroke="#758595" stroke-width="2"/>
<path d="M155.5 218.5L144.5 239.5L155.5 243.959M155.5 243.959L181.5 254.5L175 297L161.5 293L151 265L155.5 243.959Z" stroke="#758595" stroke-width="2"/>
<path d="M290.5 -2L453.32 126.5M618 159H494.5L453.32 126.5M453.32 126.5L565 -17" stroke="#758595" stroke-width="2"/>
<path d="M289 140.5L324.5 168.5L303.5 235L456 277L494 159L365.5 58L289 140.5ZM289 140.5L232.5 197L179.5 201L174.5 217" stroke="#758595" stroke-width="2"/>
<path d="M174.5 216.5L75 191C74.3051 187.577 71.1284 185 67.5 185C63.3579 185 60 188.358 60 192.5C60 196.642 63.3579 200 67.5 200C69.7212 200 71.717 199.034 73.0903 197.5L398.09 281C398.785 284.423 401.962 287 405.59 287C409.732 287 413.09 283.642 413.09 279.5C413.09 275.358 409.732 272 405.59 272C403.369 272 401.373 272.966 400 274.5L174.5 216.5ZM174.5 216.5L179.5 201" stroke="#EB5757" stroke-width="3" stroke-linecap="round"/>
<path d="M145.852 184.14C144.863 184.14 143.967 183.925 143.164 183.496C142.371 183.057 141.745 182.455 141.288 181.69C140.84 180.925 140.616 180.061 140.616 179.1C140.616 178.139 140.845 177.275 141.302 176.51C141.759 175.745 142.385 175.147 143.178 174.718C143.981 174.279 144.877 174.06 145.866 174.06C146.669 174.06 147.401 174.2 148.064 174.48C148.727 174.76 149.287 175.166 149.744 175.698L148.568 176.804C147.859 176.039 146.986 175.656 145.95 175.656C145.278 175.656 144.676 175.805 144.144 176.104C143.612 176.393 143.197 176.799 142.898 177.322C142.599 177.845 142.45 178.437 142.45 179.1C142.45 179.763 142.599 180.355 142.898 180.878C143.197 181.401 143.612 181.811 144.144 182.11C144.676 182.399 145.278 182.544 145.95 182.544C146.986 182.544 147.859 182.157 148.568 181.382L149.744 182.502C149.287 183.034 148.722 183.44 148.05 183.72C147.387 184 146.655 184.14 145.852 184.14ZM152.986 177.616C153.49 176.832 154.377 176.44 155.646 176.44V178.106C155.497 178.078 155.361 178.064 155.24 178.064C154.559 178.064 154.027 178.265 153.644 178.666C153.261 179.058 153.07 179.627 153.07 180.374V184H151.32V176.524H152.986V177.616ZM159.945 176.44C161.047 176.44 161.887 176.706 162.465 177.238C163.053 177.761 163.347 178.554 163.347 179.618V184H161.695V183.09C161.481 183.417 161.173 183.669 160.771 183.846C160.379 184.014 159.903 184.098 159.343 184.098C158.783 184.098 158.293 184.005 157.873 183.818C157.453 183.622 157.127 183.356 156.893 183.02C156.669 182.675 156.557 182.287 156.557 181.858C156.557 181.186 156.805 180.649 157.299 180.248C157.803 179.837 158.592 179.632 159.665 179.632H161.597V179.52C161.597 178.997 161.439 178.596 161.121 178.316C160.813 178.036 160.351 177.896 159.735 177.896C159.315 177.896 158.9 177.961 158.489 178.092C158.088 178.223 157.747 178.405 157.467 178.638L156.781 177.364C157.173 177.065 157.645 176.837 158.195 176.678C158.746 176.519 159.329 176.44 159.945 176.44ZM159.707 182.824C160.146 182.824 160.533 182.726 160.869 182.53C161.215 182.325 161.457 182.035 161.597 181.662V180.794H159.791C158.783 180.794 158.279 181.125 158.279 181.788C158.279 182.105 158.405 182.357 158.657 182.544C158.909 182.731 159.259 182.824 159.707 182.824ZM171.431 182.6V184H164.977V182.894L169.079 177.924H165.061V176.524H171.319V177.63L167.203 182.6H171.431ZM179.908 176.524L176.408 184.602C176.081 185.414 175.684 185.983 175.218 186.31C174.751 186.646 174.186 186.814 173.524 186.814C173.15 186.814 172.782 186.753 172.418 186.632C172.054 186.511 171.755 186.343 171.522 186.128L172.222 184.84C172.39 184.999 172.586 185.125 172.81 185.218C173.043 185.311 173.276 185.358 173.51 185.358C173.818 185.358 174.07 185.279 174.266 185.12C174.471 184.961 174.658 184.695 174.826 184.322L174.952 184.028L171.69 176.524H173.51L175.862 182.054L178.228 176.524H179.908ZM191.983 178.904C192.524 179.081 192.953 179.38 193.271 179.8C193.588 180.211 193.747 180.724 193.747 181.34C193.747 182.189 193.42 182.847 192.767 183.314C192.113 183.771 191.161 184 189.911 184H185.039V174.2H189.631C190.788 174.2 191.679 174.429 192.305 174.886C192.93 175.334 193.243 175.955 193.243 176.748C193.243 177.233 193.131 177.663 192.907 178.036C192.683 178.409 192.375 178.699 191.983 178.904ZM186.859 175.628V178.33H189.435C190.069 178.33 190.555 178.218 190.891 177.994C191.236 177.761 191.409 177.425 191.409 176.986C191.409 176.538 191.236 176.202 190.891 175.978C190.555 175.745 190.069 175.628 189.435 175.628H186.859ZM189.799 182.572C191.208 182.572 191.913 182.101 191.913 181.158C191.913 180.215 191.208 179.744 189.799 179.744H186.859V182.572H189.799ZM202.633 178.904C203.174 179.081 203.604 179.38 203.921 179.8C204.238 180.211 204.397 180.724 204.397 181.34C204.397 182.189 204.07 182.847 203.417 183.314C202.764 183.771 201.812 184 200.561 184H195.689V174.2H200.281C201.438 174.2 202.33 174.429 202.955 174.886C203.58 175.334 203.893 175.955 203.893 176.748C203.893 177.233 203.781 177.663 203.557 178.036C203.333 178.409 203.025 178.699 202.633 178.904ZM197.509 175.628V178.33H200.085C200.72 178.33 201.205 178.218 201.541 177.994C201.886 177.761 202.059 177.425 202.059 176.986C202.059 176.538 201.886 176.202 201.541 175.978C201.205 175.745 200.72 175.628 200.085 175.628H197.509ZM200.449 182.572C201.858 182.572 202.563 182.101 202.563 181.158C202.563 180.215 201.858 179.744 200.449 179.744H197.509V182.572H200.449ZM216.685 184.98C216.359 185.363 215.976 185.652 215.537 185.848C215.108 186.044 214.637 186.142 214.123 186.142C213.451 186.142 212.835 185.988 212.275 185.68C211.715 185.381 211.076 184.859 210.357 184.112C209.452 184.037 208.64 183.776 207.921 183.328C207.203 182.871 206.643 182.278 206.241 181.55C205.84 180.813 205.639 179.996 205.639 179.1C205.639 178.148 205.868 177.289 206.325 176.524C206.783 175.749 207.413 175.147 208.215 174.718C209.018 174.279 209.919 174.06 210.917 174.06C211.916 174.06 212.817 174.279 213.619 174.718C214.422 175.147 215.052 175.745 215.509 176.51C215.967 177.275 216.195 178.139 216.195 179.1C216.195 179.875 216.041 180.593 215.733 181.256C215.425 181.909 214.996 182.469 214.445 182.936C213.895 183.393 213.255 183.725 212.527 183.93C212.798 184.219 213.064 184.429 213.325 184.56C213.587 184.691 213.867 184.756 214.165 184.756C214.809 184.756 215.369 184.495 215.845 183.972L216.685 184.98ZM207.473 179.1C207.473 179.753 207.623 180.346 207.921 180.878C208.22 181.401 208.631 181.811 209.153 182.11C209.676 182.399 210.264 182.544 210.917 182.544C211.571 182.544 212.159 182.399 212.681 182.11C213.204 181.811 213.615 181.401 213.913 180.878C214.212 180.346 214.361 179.753 214.361 179.1C214.361 178.447 214.212 177.859 213.913 177.336C213.615 176.804 213.204 176.393 212.681 176.104C212.159 175.805 211.571 175.656 210.917 175.656C210.264 175.656 209.676 175.805 209.153 176.104C208.631 176.393 208.22 176.804 207.921 177.336C207.623 177.859 207.473 178.447 207.473 179.1Z" fill="white"/>
<g style="mix-blend-mode:luminosity">
<path d="M334.578 338.098C333.803 338.098 333.108 337.935 332.492 337.608C331.876 337.281 331.395 336.829 331.05 336.25C330.705 335.662 330.532 334.999 330.532 334.262C330.532 333.525 330.705 332.867 331.05 332.288C331.395 331.709 331.871 331.257 332.478 330.93C333.094 330.603 333.794 330.44 334.578 330.44C335.315 330.44 335.959 330.589 336.51 330.888C337.07 331.187 337.49 331.616 337.77 332.176L336.426 332.96C336.211 332.615 335.941 332.358 335.614 332.19C335.297 332.013 334.947 331.924 334.564 331.924C333.911 331.924 333.369 332.139 332.94 332.568C332.511 332.988 332.296 333.553 332.296 334.262C332.296 334.971 332.506 335.541 332.926 335.97C333.355 336.39 333.901 336.6 334.564 336.6C334.947 336.6 335.297 336.516 335.614 336.348C335.941 336.171 336.211 335.909 336.426 335.564L337.77 336.348C337.481 336.908 337.056 337.342 336.496 337.65C335.945 337.949 335.306 338.098 334.578 338.098ZM340.116 338.098C339.799 338.098 339.528 337.991 339.304 337.776C339.08 337.552 338.968 337.272 338.968 336.936C338.968 336.591 339.076 336.311 339.29 336.096C339.514 335.881 339.79 335.774 340.116 335.774C340.443 335.774 340.714 335.881 340.928 336.096C341.152 336.311 341.264 336.591 341.264 336.936C341.264 337.272 341.152 337.552 340.928 337.776C340.704 337.991 340.434 338.098 340.116 338.098ZM353.717 329.74H348.859L348.873 338H347.081V328.2H353.731L353.717 329.74ZM356.369 338.098C355.613 338.098 354.932 337.935 354.325 337.608C353.719 337.281 353.243 336.829 352.897 336.25C352.561 335.662 352.393 334.999 352.393 334.262C352.393 333.525 352.561 332.867 352.897 332.288C353.243 331.709 353.719 331.257 354.325 330.93C354.932 330.603 355.613 330.44 356.369 330.44C357.135 330.44 357.821 330.603 358.427 330.93C359.034 331.257 359.505 331.709 359.841 332.288C360.187 332.867 360.359 333.525 360.359 334.262C360.359 334.999 360.187 335.662 359.841 336.25C359.505 336.829 359.034 337.281 358.427 337.608C357.821 337.935 357.135 338.098 356.369 338.098ZM356.369 336.6C357.013 336.6 357.545 336.385 357.965 335.956C358.385 335.527 358.595 334.962 358.595 334.262C358.595 333.562 358.385 332.997 357.965 332.568C357.545 332.139 357.013 331.924 356.369 331.924C355.725 331.924 355.193 332.139 354.773 332.568C354.363 332.997 354.157 333.562 354.157 334.262C354.157 334.962 354.363 335.527 354.773 335.956C355.193 336.385 355.725 336.6 356.369 336.6ZM366.232 330.44C366.96 330.44 367.609 330.599 368.178 330.916C368.757 331.233 369.209 331.681 369.536 332.26C369.863 332.839 370.026 333.506 370.026 334.262C370.026 335.018 369.863 335.69 369.536 336.278C369.209 336.857 368.757 337.305 368.178 337.622C367.609 337.939 366.96 338.098 366.232 338.098C365.224 338.098 364.426 337.762 363.838 337.09V340.716H362.088V330.524H363.754V331.504C364.043 331.149 364.398 330.883 364.818 330.706C365.247 330.529 365.719 330.44 366.232 330.44ZM366.036 336.6C366.68 336.6 367.207 336.385 367.618 335.956C368.038 335.527 368.248 334.962 368.248 334.262C368.248 333.562 368.038 332.997 367.618 332.568C367.207 332.139 366.68 331.924 366.036 331.924C365.616 331.924 365.238 332.022 364.902 332.218C364.566 332.405 364.3 332.675 364.104 333.03C363.908 333.385 363.81 333.795 363.81 334.262C363.81 334.729 363.908 335.139 364.104 335.494C364.3 335.849 364.566 336.124 364.902 336.32C365.238 336.507 365.616 336.6 366.036 336.6ZM374.458 330.44C375.559 330.44 376.399 330.706 376.978 331.238C377.566 331.761 377.86 332.554 377.86 333.618V338H376.208V337.09C375.993 337.417 375.685 337.669 375.284 337.846C374.892 338.014 374.416 338.098 373.856 338.098C373.296 338.098 372.806 338.005 372.386 337.818C371.966 337.622 371.639 337.356 371.406 337.02C371.182 336.675 371.07 336.287 371.07 335.858C371.07 335.186 371.317 334.649 371.812 334.248C372.316 333.837 373.105 333.632 374.178 333.632H376.11V333.52C376.11 332.997 375.951 332.596 375.634 332.316C375.326 332.036 374.864 331.896 374.248 331.896C373.828 331.896 373.413 331.961 373.002 332.092C372.601 332.223 372.26 332.405 371.98 332.638L371.294 331.364C371.686 331.065 372.157 330.837 372.708 330.678C373.259 330.519 373.842 330.44 374.458 330.44ZM374.22 336.824C374.659 336.824 375.046 336.726 375.382 336.53C375.727 336.325 375.97 336.035 376.11 335.662V334.794H374.304C373.296 334.794 372.792 335.125 372.792 335.788C372.792 336.105 372.918 336.357 373.17 336.544C373.422 336.731 373.772 336.824 374.22 336.824Z" fill="#758595"/>
</g>
<g style="mix-blend-mode:luminosity">
<path d="M204.578 292.098C203.803 292.098 203.108 291.935 202.492 291.608C201.876 291.281 201.395 290.829 201.05 290.25C200.705 289.662 200.532 288.999 200.532 288.262C200.532 287.525 200.705 286.867 201.05 286.288C201.395 285.709 201.871 285.257 202.478 284.93C203.094 284.603 203.794 284.44 204.578 284.44C205.315 284.44 205.959 284.589 206.51 284.888C207.07 285.187 207.49 285.616 207.77 286.176L206.426 286.96C206.211 286.615 205.941 286.358 205.614 286.19C205.297 286.013 204.947 285.924 204.564 285.924C203.911 285.924 203.369 286.139 202.94 286.568C202.511 286.988 202.296 287.553 202.296 288.262C202.296 288.971 202.506 289.541 202.926 289.97C203.355 290.39 203.901 290.6 204.564 290.6C204.947 290.6 205.297 290.516 205.614 290.348C205.941 290.171 206.211 289.909 206.426 289.564L207.77 290.348C207.481 290.908 207.056 291.342 206.496 291.65C205.945 291.949 205.306 292.098 204.578 292.098ZM210.116 292.098C209.799 292.098 209.528 291.991 209.304 291.776C209.08 291.552 208.968 291.272 208.968 290.936C208.968 290.591 209.076 290.311 209.29 290.096C209.514 289.881 209.79 289.774 210.116 289.774C210.443 289.774 210.714 289.881 210.928 290.096C211.152 290.311 211.264 290.591 211.264 290.936C211.264 291.272 211.152 291.552 210.928 291.776C210.704 291.991 210.434 292.098 210.116 292.098ZM229.667 282.2V292H217.081V282.2H218.873V290.46H222.485V282.2H224.277V290.46H227.875V282.2H229.667ZM231.081 290.46V294.086H229.401V292H227.833V290.46H231.081ZM235.421 284.44C236.522 284.44 237.362 284.706 237.941 285.238C238.529 285.761 238.823 286.554 238.823 287.618V292H237.171V291.09C236.956 291.417 236.648 291.669 236.247 291.846C235.855 292.014 235.379 292.098 234.819 292.098C234.259 292.098 233.769 292.005 233.349 291.818C232.929 291.622 232.602 291.356 232.369 291.02C232.145 290.675 232.033 290.287 232.033 289.858C232.033 289.186 232.28 288.649 232.775 288.248C233.279 287.837 234.068 287.632 235.141 287.632H237.073V287.52C237.073 286.997 236.914 286.596 236.597 286.316C236.289 286.036 235.827 285.896 235.211 285.896C234.791 285.896 234.376 285.961 233.965 286.092C233.564 286.223 233.223 286.405 232.943 286.638L232.257 285.364C232.649 285.065 233.12 284.837 233.671 284.678C234.222 284.519 234.805 284.44 235.421 284.44ZM235.183 290.824C235.622 290.824 236.009 290.726 236.345 290.53C236.69 290.325 236.933 290.035 237.073 289.662V288.794H235.267C234.259 288.794 233.755 289.125 233.755 289.788C233.755 290.105 233.881 290.357 234.133 290.544C234.385 290.731 234.735 290.824 235.183 290.824ZM244.391 292.098C243.616 292.098 242.921 291.935 242.305 291.608C241.689 291.281 241.208 290.829 240.863 290.25C240.517 289.662 240.345 288.999 240.345 288.262C240.345 287.525 240.517 286.867 240.863 286.288C241.208 285.709 241.684 285.257 242.291 284.93C242.907 284.603 243.607 284.44 244.391 284.44C245.128 284.44 245.772 284.589 246.323 284.888C246.883 285.187 247.303 285.616 247.583 286.176L246.239 286.96C246.024 286.615 245.753 286.358 245.427 286.19C245.109 286.013 244.759 285.924 244.377 285.924C243.723 285.924 243.182 286.139 242.753 286.568C242.323 286.988 242.109 287.553 242.109 288.262C242.109 288.971 242.319 289.541 242.739 289.97C243.168 290.39 243.714 290.6 244.377 290.6C244.759 290.6 245.109 290.516 245.427 290.348C245.753 290.171 246.024 289.909 246.239 289.564L247.583 290.348C247.293 290.908 246.869 291.342 246.309 291.65C245.758 291.949 245.119 292.098 244.391 292.098ZM255.735 284.524V292H253.985V286.008H251.185L251.115 287.492C251.069 288.481 250.975 289.312 250.835 289.984C250.705 290.647 250.476 291.174 250.149 291.566C249.832 291.949 249.393 292.14 248.833 292.14C248.572 292.14 248.25 292.089 247.867 291.986L247.951 290.516C248.082 290.544 248.194 290.558 248.287 290.558C248.642 290.558 248.908 290.418 249.085 290.138C249.263 289.849 249.375 289.508 249.421 289.116C249.477 288.715 249.524 288.145 249.561 287.408L249.687 284.524H255.735ZM258.092 284.524H259.842V289.452L263.972 284.524H265.568V292H263.818V287.072L259.702 292H258.092V284.524ZM273.34 288.108C274.264 288.388 274.726 288.985 274.726 289.9C274.726 290.572 274.474 291.09 273.97 291.454C273.466 291.818 272.719 292 271.73 292H267.922V284.524H271.576C272.491 284.524 273.205 284.692 273.718 285.028C274.231 285.364 274.488 285.84 274.488 286.456C274.488 286.839 274.385 287.17 274.18 287.45C273.984 287.73 273.704 287.949 273.34 288.108ZM269.588 287.646H271.422C272.327 287.646 272.78 287.333 272.78 286.708C272.78 286.101 272.327 285.798 271.422 285.798H269.588V287.646ZM271.59 290.726C272.551 290.726 273.032 290.413 273.032 289.788C273.032 289.461 272.92 289.219 272.696 289.06C272.472 288.892 272.122 288.808 271.646 288.808H269.588V290.726H271.59ZM283.59 288.304C283.59 288.425 283.581 288.598 283.562 288.822H277.696C277.799 289.373 278.065 289.811 278.494 290.138C278.933 290.455 279.474 290.614 280.118 290.614C280.939 290.614 281.616 290.343 282.148 289.802L283.086 290.88C282.75 291.281 282.325 291.585 281.812 291.79C281.299 291.995 280.72 292.098 280.076 292.098C279.255 292.098 278.531 291.935 277.906 291.608C277.281 291.281 276.795 290.829 276.45 290.25C276.114 289.662 275.946 288.999 275.946 288.262C275.946 287.534 276.109 286.881 276.436 286.302C276.772 285.714 277.234 285.257 277.822 284.93C278.41 284.603 279.073 284.44 279.81 284.44C280.538 284.44 281.187 284.603 281.756 284.93C282.335 285.247 282.783 285.7 283.1 286.288C283.427 286.867 283.59 287.539 283.59 288.304ZM279.81 285.84C279.25 285.84 278.774 286.008 278.382 286.344C277.999 286.671 277.766 287.109 277.682 287.66H281.924C281.849 287.119 281.621 286.68 281.238 286.344C280.855 286.008 280.379 285.84 279.81 285.84Z" fill="#758595"/>
</g>
<g style="mix-blend-mode:luminosity">
<path d="M416.201 298.605L423.581 300.542L423.201 301.991L417.554 300.509L416.943 302.838L419.746 303.574C420.883 303.872 421.683 304.338 422.144 304.97C422.616 305.596 422.735 306.356 422.501 307.25C422.254 308.188 421.738 308.83 420.953 309.174C420.171 309.509 419.179 309.518 417.978 309.203L413.713 308.083L416.201 298.605ZM418.239 307.824C418.916 308.002 419.465 308.006 419.886 307.837C420.307 307.668 420.582 307.335 420.712 306.838C420.968 305.863 420.406 305.194 419.025 304.832L416.587 304.192L415.802 307.184L418.239 307.824ZM426.665 311.585C425.934 311.393 425.316 311.062 424.812 310.592C424.309 310.122 423.963 309.564 423.776 308.916C423.6 308.262 423.606 307.579 423.793 306.865C423.981 306.152 424.31 305.558 424.782 305.084C425.263 304.612 425.839 304.295 426.508 304.133C427.178 303.971 427.879 303.986 428.61 304.178C429.35 304.373 429.972 304.705 430.476 305.175C430.98 305.645 431.321 306.202 431.499 306.848C431.686 307.495 431.686 308.175 431.498 308.888C431.311 309.602 430.976 310.199 430.492 310.68C430.021 311.154 429.45 311.472 428.78 311.634C428.11 311.796 427.405 311.78 426.665 311.585ZM427.045 310.136C427.668 310.3 428.237 310.227 428.753 309.919C429.268 309.61 429.614 309.117 429.792 308.44C429.97 307.763 429.91 307.164 429.613 306.642C429.316 306.12 428.856 305.777 428.233 305.614C427.61 305.45 427.041 305.523 426.526 305.831C426.019 306.142 425.677 306.636 425.5 307.313C425.322 307.99 425.377 308.589 425.665 309.108C425.962 309.63 426.422 309.973 427.045 310.136ZM438.149 306.683C438.853 306.868 439.44 307.186 439.91 307.638C440.39 308.092 440.714 308.64 440.883 309.282C441.052 309.925 441.04 310.612 440.848 311.343C440.656 312.074 440.328 312.683 439.862 313.169C439.399 313.645 438.848 313.964 438.207 314.124C437.576 314.286 436.909 314.275 436.204 314.09C435.229 313.834 434.543 313.306 434.145 312.507L433.224 316.014L431.531 315.57L434.12 305.712L435.731 306.135L435.482 307.083C435.852 306.813 436.263 306.646 436.714 306.581C437.174 306.519 437.653 306.553 438.149 306.683ZM436.395 312.591C437.018 312.755 437.583 312.681 438.089 312.37C438.604 312.062 438.951 311.569 439.128 310.892C439.306 310.215 439.247 309.615 438.949 309.093C438.661 308.574 438.206 308.232 437.583 308.069C437.176 307.962 436.786 307.961 436.411 308.065C436.039 308.16 435.713 308.354 435.433 308.648C435.154 308.941 434.954 309.313 434.836 309.765C434.717 310.216 434.708 310.638 434.807 311.031C434.907 311.424 435.094 311.758 435.37 312.033C435.647 312.298 435.989 312.485 436.395 312.591ZM443.482 308.17L445.175 308.615L443.923 313.381L449.169 309.663L450.713 310.069L448.814 317.3L447.122 316.855L448.373 312.089L443.141 315.81L441.584 315.401L443.482 308.17ZM454.357 318.856C453.608 318.659 452.977 318.325 452.464 317.852C451.951 317.38 451.601 316.82 451.414 316.173C451.229 315.516 451.23 314.832 451.418 314.118C451.605 313.405 451.939 312.813 452.42 312.341C452.901 311.869 453.476 311.552 454.146 311.39C454.825 311.23 455.543 311.25 456.302 311.449C457.015 311.636 457.6 311.944 458.057 312.373C458.522 312.804 458.82 313.326 458.948 313.939L457.449 314.356C457.329 313.967 457.133 313.65 456.859 313.405C456.597 313.153 456.281 312.978 455.911 312.881C455.279 312.715 454.701 312.785 454.177 313.091C453.655 313.389 453.304 313.88 453.124 314.566C452.944 315.252 453.002 315.856 453.299 316.378C453.608 316.894 454.083 317.235 454.724 317.404C455.094 317.501 455.454 317.508 455.803 317.427C456.164 317.338 456.493 317.154 456.788 316.874L457.889 317.974C457.467 318.442 456.946 318.754 456.326 318.91C455.717 319.059 455.061 319.041 454.357 318.856ZM467.791 314.553L465.892 321.784L464.213 321.343L465.735 315.547L462.174 314.612L460.652 320.408L458.959 319.963L460.858 312.732L467.791 314.553ZM471.374 323.324C470.643 323.132 470.025 322.801 469.522 322.331C469.018 321.861 468.672 321.302 468.485 320.655C468.31 320.001 468.315 319.317 468.503 318.604C468.69 317.891 469.02 317.297 469.491 316.823C469.972 316.351 470.548 316.034 471.218 315.872C471.887 315.71 472.588 315.725 473.319 315.917C474.059 316.112 474.681 316.444 475.185 316.914C475.689 317.384 476.03 317.941 476.208 318.586C476.395 319.234 476.395 319.914 476.208 320.627C476.02 321.34 475.685 321.937 475.202 322.418C474.73 322.893 474.159 323.211 473.489 323.373C472.819 323.535 472.114 323.518 471.374 323.324ZM471.755 321.875C472.377 322.039 472.947 321.966 473.462 321.658C473.977 321.349 474.324 320.856 474.501 320.179C474.679 319.502 474.619 318.903 474.322 318.381C474.025 317.859 473.565 317.516 472.942 317.353C472.319 317.189 471.75 317.262 471.235 317.57C470.729 317.881 470.387 318.375 470.209 319.052C470.031 319.729 470.086 320.327 470.374 320.847C470.672 321.369 471.132 321.712 471.755 321.875ZM485.303 319.151L483.405 326.382L481.712 325.937L483.234 320.142L480.526 319.431L480.081 320.848C479.785 321.793 479.484 322.573 479.178 323.187C478.883 323.795 478.528 324.247 478.112 324.543C477.708 324.833 477.235 324.906 476.694 324.764C476.441 324.698 476.142 324.566 475.798 324.37L476.253 322.969C476.372 323.03 476.477 323.072 476.567 323.095C476.91 323.185 477.203 323.118 477.446 322.892C477.691 322.657 477.886 322.356 478.03 321.989C478.186 321.615 478.376 321.076 478.599 320.372L479.454 317.615L485.303 319.151ZM490.586 323.085C491.507 323.327 492.157 323.719 492.535 324.263C492.923 324.808 493.017 325.46 492.818 326.219C492.609 327.013 492.177 327.556 491.522 327.847C490.866 328.138 490.048 328.15 489.066 327.882L485.684 326.98L487.583 319.749L489.276 320.194L488.653 322.563L490.586 323.085ZM489.244 326.598C489.738 326.737 490.145 326.733 490.464 326.585C490.782 326.437 490.996 326.155 491.105 325.74C491.212 325.334 491.164 325.003 490.961 324.747C490.758 324.491 490.4 324.291 489.888 324.147L488.348 323.728L487.704 326.179L489.244 326.598ZM496.924 330.032C496.175 329.836 495.544 329.501 495.031 329.029C494.518 328.556 494.168 327.996 493.981 327.349C493.796 326.693 493.797 326.008 493.985 325.295C494.172 324.582 494.506 323.989 494.987 323.517C495.468 323.045 496.043 322.728 496.713 322.566C497.392 322.407 498.11 322.426 498.869 322.625C499.582 322.813 500.167 323.121 500.624 323.549C501.089 323.981 501.387 324.502 501.515 325.115L500.016 325.532C499.896 325.144 499.7 324.827 499.426 324.581C499.164 324.329 498.848 324.154 498.478 324.057C497.846 323.891 497.268 323.962 496.744 324.268C496.222 324.565 495.871 325.057 495.691 325.743C495.511 326.429 495.569 327.033 495.866 327.555C496.175 328.07 496.65 328.412 497.291 328.58C497.661 328.677 498.021 328.685 498.37 328.603C498.731 328.514 499.06 328.33 499.355 328.051L500.456 329.15C500.034 329.619 499.513 329.93 498.893 330.086C498.284 330.235 497.628 330.217 496.924 330.032ZM505.293 329.031L503.98 328.686L503.219 331.584L501.526 331.14L503.425 323.909L505.118 324.353L504.35 327.278L505.704 327.633L508.611 325.27L510.426 325.747L506.885 328.537L508.703 333.024L506.713 332.501L505.293 329.031ZM512.857 334.216C512.126 334.024 511.508 333.693 511.004 333.223C510.5 332.753 510.155 332.194 509.968 331.547C509.792 330.893 509.798 330.209 509.985 329.496C510.173 328.783 510.502 328.189 510.974 327.714C511.455 327.242 512.03 326.926 512.7 326.764C513.37 326.602 514.07 326.617 514.802 326.809C515.542 327.003 516.164 327.335 516.668 327.805C517.172 328.275 517.512 328.833 517.69 329.478C517.878 330.125 517.877 330.806 517.69 331.519C517.503 332.232 517.168 332.829 516.684 333.31C516.212 333.784 515.642 334.103 514.972 334.264C514.302 334.426 513.597 334.41 512.857 334.216ZM513.237 332.767C513.86 332.93 514.429 332.858 514.944 332.549C515.46 332.241 515.806 331.748 515.984 331.071C516.162 330.394 516.102 329.794 515.805 329.272C515.508 328.75 515.048 328.408 514.425 328.244C513.802 328.081 513.233 328.153 512.718 328.462C512.211 328.773 511.869 329.267 511.692 329.944C511.514 330.621 511.569 331.219 511.857 331.739C512.154 332.261 512.614 332.603 513.237 332.767ZM526.122 333.776C526.091 333.893 526.038 334.058 525.964 334.27L520.29 332.78C520.249 333.339 520.395 333.831 520.727 334.256C521.071 334.674 521.554 334.965 522.177 335.129C522.972 335.337 523.695 335.247 524.347 334.859L524.981 336.14C524.554 336.442 524.066 336.628 523.517 336.696C522.969 336.765 522.383 336.717 521.76 336.553C520.965 336.345 520.307 336.003 519.785 335.528C519.264 335.054 518.909 334.492 518.722 333.845C518.546 333.191 518.552 332.507 518.739 331.794C518.924 331.09 519.248 330.5 519.711 330.023C520.185 329.54 520.748 329.215 521.4 329.048C522.052 328.881 522.734 328.892 523.447 329.079C524.151 329.264 524.737 329.586 525.205 330.047C525.684 330.501 526.003 331.052 526.16 331.702C526.329 332.344 526.317 333.036 526.122 333.776ZM523.092 330.433C522.55 330.291 522.047 330.332 521.583 330.558C521.13 330.777 520.792 331.142 520.571 331.653L524.674 332.73C524.74 332.188 524.63 331.705 524.345 331.283C524.06 330.861 523.642 330.577 523.092 330.433ZM543.333 334.387L541.434 341.618L530.777 338.82L532.676 331.589L534.368 332.033L532.847 337.829L535.65 338.565L537.171 332.769L538.864 333.213L537.342 339.009L540.118 339.738L541.64 333.942L543.333 334.387ZM546.908 343.156C546.177 342.964 545.559 342.633 545.055 342.163C544.551 341.693 544.206 341.134 544.019 340.487C543.843 339.833 543.849 339.149 544.036 338.436C544.224 337.723 544.553 337.129 545.025 336.655C545.506 336.183 546.081 335.866 546.751 335.704C547.421 335.542 548.121 335.557 548.853 335.749C549.593 335.944 550.215 336.276 550.719 336.746C551.222 337.216 551.563 337.773 551.741 338.418C551.928 339.066 551.928 339.746 551.741 340.459C551.554 341.172 551.219 341.769 550.735 342.25C550.263 342.725 549.693 343.043 549.023 343.205C548.353 343.367 547.648 343.35 546.908 343.156ZM547.288 341.707C547.911 341.871 548.48 341.798 548.995 341.49C549.511 341.181 549.857 340.688 550.035 340.011C550.213 339.334 550.153 338.735 549.856 338.213C549.559 337.691 549.099 337.348 548.476 337.185C547.853 337.021 547.284 337.093 546.768 337.402C546.262 337.713 545.92 338.207 545.742 338.884C545.565 339.561 545.62 340.159 545.908 340.679C546.205 341.201 546.665 341.544 547.288 341.707ZM555.73 345.472C554.98 345.276 554.349 344.941 553.836 344.469C553.324 343.996 552.974 343.436 552.787 342.789C552.602 342.133 552.603 341.448 552.79 340.735C552.978 340.021 553.312 339.429 553.793 338.957C554.274 338.485 554.849 338.168 555.519 338.006C556.198 337.847 556.916 337.866 557.674 338.065C558.387 338.253 558.972 338.561 559.429 338.989C559.895 339.42 560.192 339.942 560.321 340.555L558.822 340.972C558.702 340.584 558.505 340.267 558.232 340.021C557.97 339.769 557.654 339.594 557.284 339.497C556.652 339.331 556.074 339.401 555.55 339.708C555.028 340.005 554.677 340.497 554.497 341.183C554.316 341.869 554.375 342.473 554.672 342.995C554.981 343.51 555.456 343.852 556.096 344.02C556.467 344.117 556.826 344.125 557.176 344.043C557.537 343.954 557.865 343.77 558.161 343.491L559.261 344.59C558.839 345.058 558.318 345.37 557.698 345.526C557.09 345.675 556.434 345.657 555.73 345.472ZM563.492 347.51C562.743 347.314 562.112 346.979 561.599 346.507C561.086 346.034 560.736 345.474 560.549 344.827C560.364 344.171 560.365 343.486 560.553 342.773C560.74 342.06 561.074 341.467 561.555 340.995C562.036 340.523 562.611 340.206 563.281 340.044C563.96 339.885 564.678 339.904 565.437 340.103C566.15 340.291 566.735 340.599 567.192 341.027C567.657 341.458 567.955 341.98 568.083 342.593L566.584 343.01C566.464 342.622 566.268 342.305 565.994 342.059C565.732 341.807 565.416 341.632 565.046 341.535C564.414 341.369 563.836 341.439 563.312 341.746C562.79 342.043 562.439 342.535 562.259 343.221C562.079 343.907 562.137 344.511 562.434 345.033C562.743 345.548 563.218 345.89 563.859 346.058C564.229 346.155 564.589 346.163 564.938 346.081C565.299 345.992 565.627 345.808 565.923 345.529L567.024 346.628C566.602 347.097 566.081 347.408 565.461 347.564C564.852 347.713 564.196 347.695 563.492 347.51ZM575.698 346.793C575.667 346.91 575.614 347.075 575.539 347.286L569.865 345.797C569.825 346.355 569.971 346.847 570.303 347.272C570.647 347.691 571.13 347.982 571.753 348.145C572.547 348.354 573.271 348.264 573.923 347.875L574.556 349.156C574.129 349.459 573.641 349.645 573.093 349.713C572.544 349.781 571.958 349.733 571.335 349.57C570.541 349.361 569.883 349.02 569.361 348.545C568.839 348.07 568.485 347.509 568.298 346.862C568.122 346.207 568.128 345.524 568.315 344.811C568.5 344.107 568.824 343.516 569.287 343.039C569.761 342.556 570.324 342.231 570.976 342.064C571.627 341.898 572.31 341.908 573.023 342.095C573.727 342.28 574.313 342.603 574.781 343.063C575.26 343.517 575.578 344.069 575.736 344.718C575.905 345.361 575.892 346.052 575.698 346.793ZM572.667 343.449C572.126 343.307 571.623 343.349 571.158 343.574C570.705 343.793 570.368 344.158 570.147 344.669L574.25 345.747C574.315 345.204 574.205 344.722 573.921 344.3C573.636 343.877 573.218 343.594 572.667 343.449Z" fill="#758595"/>
</g>
<g style="mix-blend-mode:luminosity">
<path d="M373.578 241.098C372.803 241.098 372.108 240.935 371.492 240.608C370.876 240.281 370.395 239.829 370.05 239.25C369.705 238.662 369.532 237.999 369.532 237.262C369.532 236.525 369.705 235.867 370.05 235.288C370.395 234.709 370.871 234.257 371.478 233.93C372.094 233.603 372.794 233.44 373.578 233.44C374.315 233.44 374.959 233.589 375.51 233.888C376.07 234.187 376.49 234.616 376.77 235.176L375.426 235.96C375.211 235.615 374.941 235.358 374.614 235.19C374.297 235.013 373.947 234.924 373.564 234.924C372.911 234.924 372.369 235.139 371.94 235.568C371.511 235.988 371.296 236.553 371.296 237.262C371.296 237.971 371.506 238.541 371.926 238.97C372.355 239.39 372.901 239.6 373.564 239.6C373.947 239.6 374.297 239.516 374.614 239.348C374.941 239.171 375.211 238.909 375.426 238.564L376.77 239.348C376.481 239.908 376.056 240.342 375.496 240.65C374.945 240.949 374.306 241.098 373.578 241.098ZM379.116 241.098C378.799 241.098 378.528 240.991 378.304 240.776C378.08 240.552 377.968 240.272 377.968 239.936C377.968 239.591 378.076 239.311 378.29 239.096C378.514 238.881 378.79 238.774 379.116 238.774C379.443 238.774 379.714 238.881 379.928 239.096C380.152 239.311 380.264 239.591 380.264 239.936C380.264 240.272 380.152 240.552 379.928 240.776C379.704 240.991 379.434 241.098 379.116 241.098ZM393.711 231.2V241H391.905V237.304C390.981 237.649 390.104 237.822 389.273 237.822C388.023 237.822 387.057 237.523 386.375 236.926C385.703 236.319 385.367 235.451 385.367 234.322V231.2H387.173V234.126C387.173 234.817 387.374 235.344 387.775 235.708C388.177 236.072 388.751 236.254 389.497 236.254C390.347 236.254 391.149 236.081 391.905 235.736V231.2H393.711ZM403.318 233.524L399.818 241.602C399.491 242.414 399.095 242.983 398.628 243.31C398.161 243.646 397.597 243.814 396.934 243.814C396.561 243.814 396.192 243.753 395.828 243.632C395.464 243.511 395.165 243.343 394.932 243.128L395.632 241.84C395.8 241.999 395.996 242.125 396.22 242.218C396.453 242.311 396.687 242.358 396.92 242.358C397.228 242.358 397.48 242.279 397.676 242.12C397.881 241.961 398.068 241.695 398.236 241.322L398.362 241.028L395.1 233.524H396.92L399.272 239.054L401.638 233.524H403.318ZM408.511 233.888C409.22 233.888 409.846 234.042 410.387 234.35C410.928 234.649 411.348 235.069 411.647 235.61C411.955 236.151 412.109 236.772 412.109 237.472C412.109 238.191 411.941 238.83 411.605 239.39C411.269 239.941 410.798 240.37 410.191 240.678C409.584 240.986 408.894 241.14 408.119 241.14C406.822 241.14 405.818 240.711 405.109 239.852C404.4 238.993 404.045 237.757 404.045 236.142C404.045 234.639 404.367 233.449 405.011 232.572C405.655 231.695 406.64 231.116 407.965 230.836L411.437 230.094L411.689 231.662L408.539 232.306C407.634 232.493 406.957 232.81 406.509 233.258C406.061 233.706 405.8 234.336 405.725 235.148C406.061 234.747 406.467 234.439 406.943 234.224C407.419 234 407.942 233.888 408.511 233.888ZM408.161 239.726C408.805 239.726 409.323 239.521 409.715 239.11C410.116 238.69 410.317 238.158 410.317 237.514C410.317 236.87 410.116 236.352 409.715 235.96C409.323 235.568 408.805 235.372 408.161 235.372C407.508 235.372 406.98 235.568 406.579 235.96C406.178 236.352 405.977 236.87 405.977 237.514C405.977 238.167 406.178 238.699 406.579 239.11C406.99 239.521 407.517 239.726 408.161 239.726ZM413.803 233.524H415.553V238.452L419.683 233.524H421.279V241H419.529V236.072L415.413 241H413.803V233.524ZM423.633 233.524H425.383V236.562H429.149V233.524H430.899V241H429.149V238.046H425.383V241H423.633V233.524ZM436.646 241.098C435.872 241.098 435.176 240.935 434.56 240.608C433.944 240.281 433.464 239.829 433.118 239.25C432.773 238.662 432.6 237.999 432.6 237.262C432.6 236.525 432.773 235.867 433.118 235.288C433.464 234.709 433.94 234.257 434.546 233.93C435.162 233.603 435.862 233.44 436.646 233.44C437.384 233.44 438.028 233.589 438.578 233.888C439.138 234.187 439.558 234.616 439.838 235.176L438.494 235.96C438.28 235.615 438.009 235.358 437.682 235.19C437.365 235.013 437.015 234.924 436.632 234.924C435.979 234.924 435.438 235.139 435.008 235.568C434.579 235.988 434.364 236.553 434.364 237.262C434.364 237.971 434.574 238.541 434.994 238.97C435.424 239.39 435.97 239.6 436.632 239.6C437.015 239.6 437.365 239.516 437.682 239.348C438.009 239.171 438.28 238.909 438.494 238.564L439.838 239.348C439.549 239.908 439.124 240.342 438.564 240.65C438.014 240.949 437.374 241.098 436.646 241.098ZM444.487 238.004H443.129V241H441.379V233.524H443.129V236.548H444.529L446.741 233.524H448.617L445.901 237.122L448.799 241H446.741L444.487 238.004ZM456.787 237.304C456.787 237.425 456.778 237.598 456.759 237.822H450.893C450.996 238.373 451.262 238.811 451.691 239.138C452.13 239.455 452.671 239.614 453.315 239.614C454.137 239.614 454.813 239.343 455.345 238.802L456.283 239.88C455.947 240.281 455.523 240.585 455.009 240.79C454.496 240.995 453.917 241.098 453.273 241.098C452.452 241.098 451.729 240.935 451.103 240.608C450.478 240.281 449.993 239.829 449.647 239.25C449.311 238.662 449.143 237.999 449.143 237.262C449.143 236.534 449.307 235.881 449.633 235.302C449.969 234.714 450.431 234.257 451.019 233.93C451.607 233.603 452.27 233.44 453.007 233.44C453.735 233.44 454.384 233.603 454.953 233.93C455.532 234.247 455.98 234.7 456.297 235.288C456.624 235.867 456.787 236.539 456.787 237.304ZM453.007 234.84C452.447 234.84 451.971 235.008 451.579 235.344C451.197 235.671 450.963 236.109 450.879 236.66H455.121C455.047 236.119 454.818 235.68 454.435 235.344C454.053 235.008 453.577 234.84 453.007 234.84Z" fill="#758595"/>
</g>
<g style="mix-blend-mode:luminosity">
<path d="M325.578 142.098C324.803 142.098 324.108 141.935 323.492 141.608C322.876 141.281 322.395 140.829 322.05 140.25C321.705 139.662 321.532 138.999 321.532 138.262C321.532 137.525 321.705 136.867 322.05 136.288C322.395 135.709 322.871 135.257 323.478 134.93C324.094 134.603 324.794 134.44 325.578 134.44C326.315 134.44 326.959 134.589 327.51 134.888C328.07 135.187 328.49 135.616 328.77 136.176L327.426 136.96C327.211 136.615 326.941 136.358 326.614 136.19C326.297 136.013 325.947 135.924 325.564 135.924C324.911 135.924 324.369 136.139 323.94 136.568C323.511 136.988 323.296 137.553 323.296 138.262C323.296 138.971 323.506 139.541 323.926 139.97C324.355 140.39 324.901 140.6 325.564 140.6C325.947 140.6 326.297 140.516 326.614 140.348C326.941 140.171 327.211 139.909 327.426 139.564L328.77 140.348C328.481 140.908 328.056 141.342 327.496 141.65C326.945 141.949 326.306 142.098 325.578 142.098ZM331.116 142.098C330.799 142.098 330.528 141.991 330.304 141.776C330.08 141.552 329.968 141.272 329.968 140.936C329.968 140.591 330.076 140.311 330.29 140.096C330.514 139.881 330.79 139.774 331.116 139.774C331.443 139.774 331.714 139.881 331.928 140.096C332.152 140.311 332.264 140.591 332.264 140.936C332.264 141.272 332.152 141.552 331.928 141.776C331.704 141.991 331.434 142.098 331.116 142.098ZM338.081 132.2H345.711V133.698H339.873V136.106H342.771C343.947 136.106 344.839 136.353 345.445 136.848C346.061 137.333 346.369 138.038 346.369 138.962C346.369 139.933 346.033 140.684 345.361 141.216C344.689 141.739 343.733 142 342.491 142H338.081V132.2ZM342.393 140.6C343.093 140.6 343.625 140.465 343.989 140.194C344.353 139.923 344.535 139.531 344.535 139.018C344.535 138.01 343.821 137.506 342.393 137.506H339.873V140.6H342.393ZM355.166 138.304C355.166 138.425 355.157 138.598 355.138 138.822H349.272C349.375 139.373 349.641 139.811 350.07 140.138C350.509 140.455 351.05 140.614 351.694 140.614C352.516 140.614 353.192 140.343 353.724 139.802L354.662 140.88C354.326 141.281 353.902 141.585 353.388 141.79C352.875 141.995 352.296 142.098 351.652 142.098C350.831 142.098 350.108 141.935 349.482 141.608C348.857 141.281 348.372 140.829 348.026 140.25C347.69 139.662 347.522 138.999 347.522 138.262C347.522 137.534 347.686 136.881 348.012 136.302C348.348 135.714 348.81 135.257 349.398 134.93C349.986 134.603 350.649 134.44 351.386 134.44C352.114 134.44 352.763 134.603 353.332 134.93C353.911 135.247 354.359 135.7 354.676 136.288C355.003 136.867 355.166 137.539 355.166 138.304ZM351.386 135.84C350.826 135.84 350.35 136.008 349.958 136.344C349.576 136.671 349.342 137.109 349.258 137.66H353.5C353.426 137.119 353.197 136.68 352.814 136.344C352.432 136.008 351.956 135.84 351.386 135.84ZM361.41 138.108C361.876 138.239 362.236 138.453 362.488 138.752C362.749 139.041 362.88 139.391 362.88 139.802C362.88 140.259 362.726 140.665 362.418 141.02C362.11 141.365 361.685 141.636 361.144 141.832C360.602 142.028 359.986 142.126 359.296 142.126C358.717 142.126 358.152 142.061 357.602 141.93C357.051 141.79 356.552 141.594 356.104 141.342L356.608 140.04C356.972 140.245 357.382 140.404 357.84 140.516C358.297 140.628 358.754 140.684 359.212 140.684C359.8 140.684 360.257 140.595 360.584 140.418C360.92 140.231 361.088 139.979 361.088 139.662C361.088 139.373 360.957 139.149 360.696 138.99C360.444 138.831 360.084 138.752 359.618 138.752H358.162V137.576H359.478C359.916 137.576 360.257 137.501 360.5 137.352C360.752 137.203 360.878 136.993 360.878 136.722C360.878 136.451 360.728 136.237 360.43 136.078C360.131 135.919 359.72 135.84 359.198 135.84C358.451 135.84 357.662 136.022 356.832 136.386L356.384 135.098C357.364 134.641 358.353 134.412 359.352 134.412C359.986 134.412 360.556 134.501 361.06 134.678C361.564 134.846 361.956 135.089 362.236 135.406C362.525 135.714 362.67 136.069 362.67 136.47C362.67 136.834 362.558 137.161 362.334 137.45C362.11 137.73 361.802 137.949 361.41 138.108ZM371.752 134.524L368.252 142.602C367.925 143.414 367.528 143.983 367.062 144.31C366.595 144.646 366.03 144.814 365.368 144.814C364.994 144.814 364.626 144.753 364.262 144.632C363.898 144.511 363.599 144.343 363.366 144.128L364.066 142.84C364.234 142.999 364.43 143.125 364.654 143.218C364.887 143.311 365.12 143.358 365.354 143.358C365.662 143.358 365.914 143.279 366.11 143.12C366.315 142.961 366.502 142.695 366.67 142.322L366.796 142.028L363.534 134.524H365.354L367.706 140.054L370.072 134.524H371.752ZM378.707 136.008H374.717V142H372.967V134.524H378.707V136.008ZM386.251 134.524V142H384.501V136.008H381.701L381.631 137.492C381.584 138.481 381.491 139.312 381.351 139.984C381.22 140.647 380.991 141.174 380.665 141.566C380.347 141.949 379.909 142.14 379.349 142.14C379.087 142.14 378.765 142.089 378.383 141.986L378.467 140.516C378.597 140.544 378.709 140.558 378.803 140.558C379.157 140.558 379.423 140.418 379.601 140.138C379.778 139.849 379.89 139.508 379.937 139.116C379.993 138.715 380.039 138.145 380.077 137.408L380.203 134.524H386.251ZM388.608 134.524H390.358V139.452L394.488 134.524H396.084V142H394.334V137.072L390.218 142H388.608V134.524ZM403.856 138.108C404.78 138.388 405.242 138.985 405.242 139.9C405.242 140.572 404.99 141.09 404.486 141.454C403.982 141.818 403.235 142 402.246 142H398.438V134.524H402.092C403.006 134.524 403.72 134.692 404.234 135.028C404.747 135.364 405.004 135.84 405.004 136.456C405.004 136.839 404.901 137.17 404.696 137.45C404.5 137.73 404.22 137.949 403.856 138.108ZM400.104 137.646H401.938C402.843 137.646 403.296 137.333 403.296 136.708C403.296 136.101 402.843 135.798 401.938 135.798H400.104V137.646ZM402.106 140.726C403.067 140.726 403.548 140.413 403.548 139.788C403.548 139.461 403.436 139.219 403.212 139.06C402.988 138.892 402.638 138.808 402.162 138.808H400.104V140.726H402.106ZM410.214 139.004H408.856V142H407.106V134.524H408.856V137.548H410.256L412.468 134.524H414.344L411.628 138.122L414.526 142H412.468L410.214 139.004ZM418.409 134.44C419.511 134.44 420.351 134.706 420.929 135.238C421.517 135.761 421.811 136.554 421.811 137.618V142H420.159V141.09C419.945 141.417 419.637 141.669 419.235 141.846C418.843 142.014 418.367 142.098 417.807 142.098C417.247 142.098 416.757 142.005 416.337 141.818C415.917 141.622 415.591 141.356 415.357 141.02C415.133 140.675 415.021 140.287 415.021 139.858C415.021 139.186 415.269 138.649 415.763 138.248C416.267 137.837 417.056 137.632 418.129 137.632H420.061V137.52C420.061 136.997 419.903 136.596 419.585 136.316C419.277 136.036 418.815 135.896 418.199 135.896C417.779 135.896 417.364 135.961 416.953 136.092C416.552 136.223 416.211 136.405 415.931 136.638L415.245 135.364C415.637 135.065 416.109 134.837 416.659 134.678C417.21 134.519 417.793 134.44 418.409 134.44ZM418.171 140.824C418.61 140.824 418.997 140.726 419.333 140.53C419.679 140.325 419.921 140.035 420.061 139.662V138.794H418.255C417.247 138.794 416.743 139.125 416.743 139.788C416.743 140.105 416.869 140.357 417.121 140.544C417.373 140.731 417.723 140.824 418.171 140.824Z" fill="#758595"/>
</g>
<rect x="497" y="300" width="27" height="13" fill="#333333"/>
<path d="M506.41 310L506.4 305.36L504.1 309.2H503.52L501.22 305.42V310H499.99V303H501.06L503.83 307.63L506.57 303H507.63L507.65 310H506.41ZM511.989 310.1C511.429 310.1 510.929 309.96 510.489 309.68C510.049 309.393 509.702 308.98 509.449 308.44C509.196 307.893 509.069 307.247 509.069 306.5C509.069 305.753 509.196 305.11 509.449 304.57C509.702 304.023 510.049 303.61 510.489 303.33C510.929 303.043 511.429 302.9 511.989 302.9C512.549 302.9 513.049 303.043 513.489 303.33C513.936 303.61 514.286 304.023 514.539 304.57C514.792 305.11 514.919 305.753 514.919 306.5C514.919 307.247 514.792 307.893 514.539 308.44C514.286 308.98 513.936 309.393 513.489 309.68C513.049 309.96 512.549 310.1 511.989 310.1ZM511.989 308.97C512.489 308.97 512.882 308.763 513.169 308.35C513.462 307.937 513.609 307.32 513.609 306.5C513.609 305.68 513.462 305.063 513.169 304.65C512.882 304.237 512.489 304.03 511.989 304.03C511.496 304.03 511.102 304.237 510.809 304.65C510.522 305.063 510.379 305.68 510.379 306.5C510.379 307.32 510.522 307.937 510.809 308.35C511.102 308.763 511.496 308.97 511.989 308.97ZM518.68 305.89C519.326 305.97 519.82 306.19 520.16 306.55C520.5 306.91 520.67 307.36 520.67 307.9C520.67 308.307 520.566 308.677 520.36 309.01C520.153 309.343 519.84 309.61 519.42 309.81C519.006 310.003 518.5 310.1 517.9 310.1C517.4 310.1 516.916 310.03 516.45 309.89C515.99 309.743 515.596 309.543 515.27 309.29L515.83 308.28C516.083 308.493 516.39 308.663 516.75 308.79C517.116 308.91 517.493 308.97 517.88 308.97C518.34 308.97 518.7 308.877 518.96 308.69C519.226 308.497 519.36 308.237 519.36 307.91C519.36 307.583 519.233 307.33 518.98 307.15C518.733 306.963 518.353 306.87 517.84 306.87H517.2V305.98L518.79 304.09H515.61V303H520.38V303.87L518.68 305.89Z" fill="#BDBDBD"/>
<rect x="541" y="152" width="25" height="13" fill="#333333"/>
<path d="M547.041 155C547.647 155 548.174 155.1 548.621 155.3C549.074 155.5 549.421 155.787 549.661 156.16C549.901 156.533 550.021 156.977 550.021 157.49C550.021 157.997 549.901 158.44 549.661 158.82C549.421 159.193 549.074 159.48 548.621 159.68C548.174 159.88 547.647 159.98 547.041 159.98H545.461V162H544.161V155H547.041ZM546.981 158.88C547.547 158.88 547.977 158.76 548.271 158.52C548.564 158.28 548.711 157.937 548.711 157.49C548.711 157.043 548.564 156.7 548.271 156.46C547.977 156.22 547.547 156.1 546.981 156.1H545.461V158.88H546.981ZM553.728 162.1C553.168 162.1 552.668 161.96 552.228 161.68C551.788 161.393 551.441 160.98 551.188 160.44C550.935 159.893 550.808 159.247 550.808 158.5C550.808 157.753 550.935 157.11 551.188 156.57C551.441 156.023 551.788 155.61 552.228 155.33C552.668 155.043 553.168 154.9 553.728 154.9C554.288 154.9 554.788 155.043 555.228 155.33C555.675 155.61 556.025 156.023 556.278 156.57C556.531 157.11 556.658 157.753 556.658 158.5C556.658 159.247 556.531 159.893 556.278 160.44C556.025 160.98 555.675 161.393 555.228 161.68C554.788 161.96 554.288 162.1 553.728 162.1ZM553.728 160.97C554.228 160.97 554.621 160.763 554.908 160.35C555.201 159.937 555.348 159.32 555.348 158.5C555.348 157.68 555.201 157.063 554.908 156.65C554.621 156.237 554.228 156.03 553.728 156.03C553.235 156.03 552.841 156.237 552.548 156.65C552.261 157.063 552.118 157.68 552.118 158.5C552.118 159.32 552.261 159.937 552.548 160.35C552.841 160.763 553.235 160.97 553.728 160.97ZM560.419 157.89C561.066 157.97 561.559 158.19 561.899 158.55C562.239 158.91 562.409 159.36 562.409 159.9C562.409 160.307 562.306 160.677 562.099 161.01C561.892 161.343 561.579 161.61 561.159 161.81C560.746 162.003 560.239 162.1 559.639 162.1C559.139 162.1 558.656 162.03 558.189 161.89C557.729 161.743 557.336 161.543 557.009 161.29L557.569 160.28C557.822 160.493 558.129 160.663 558.489 160.79C558.856 160.91 559.232 160.97 559.619 160.97C560.079 160.97 560.439 160.877 560.699 160.69C560.966 160.497 561.099 160.237 561.099 159.91C561.099 159.583 560.972 159.33 560.719 159.15C560.472 158.963 560.092 158.87 559.579 158.87H558.939V157.98L560.529 156.09H557.349V155H562.119V155.87L560.419 157.89Z" fill="#BDBDBD"/>
<rect x="309" y="16" width="25" height="13" fill="#333333"/>
<path d="M315.041 19C315.647 19 316.174 19.1 316.621 19.3C317.074 19.5 317.421 19.7867 317.661 20.16C317.901 20.5333 318.021 20.9767 318.021 21.49C318.021 21.9967 317.901 22.44 317.661 22.82C317.421 23.1933 317.074 23.48 316.621 23.68C316.174 23.88 315.647 23.98 315.041 23.98H313.461V26H312.161V19H315.041ZM314.981 22.88C315.547 22.88 315.977 22.76 316.271 22.52C316.564 22.28 316.711 21.9367 316.711 21.49C316.711 21.0433 316.564 20.7 316.271 20.46C315.977 20.22 315.547 20.1 314.981 20.1H313.461V22.88H314.981ZM321.728 26.1C321.168 26.1 320.668 25.96 320.228 25.68C319.788 25.3933 319.441 24.98 319.188 24.44C318.935 23.8933 318.808 23.2467 318.808 22.5C318.808 21.7533 318.935 21.11 319.188 20.57C319.441 20.0233 319.788 19.61 320.228 19.33C320.668 19.0433 321.168 18.9 321.728 18.9C322.288 18.9 322.788 19.0433 323.228 19.33C323.675 19.61 324.025 20.0233 324.278 20.57C324.531 21.11 324.658 21.7533 324.658 22.5C324.658 23.2467 324.531 23.8933 324.278 24.44C324.025 24.98 323.675 25.3933 323.228 25.68C322.788 25.96 322.288 26.1 321.728 26.1ZM321.728 24.97C322.228 24.97 322.621 24.7633 322.908 24.35C323.201 23.9367 323.348 23.32 323.348 22.5C323.348 21.68 323.201 21.0633 322.908 20.65C322.621 20.2367 322.228 20.03 321.728 20.03C321.235 20.03 320.841 20.2367 320.548 20.65C320.261 21.0633 320.118 21.68 320.118 22.5C320.118 23.32 320.261 23.9367 320.548 24.35C320.841 24.7633 321.235 24.97 321.728 24.97ZM328.419 21.89C329.066 21.97 329.559 22.19 329.899 22.55C330.239 22.91 330.409 23.36 330.409 23.9C330.409 24.3067 330.306 24.6767 330.099 25.01C329.892 25.3433 329.579 25.61 329.159 25.81C328.746 26.0033 328.239 26.1 327.639 26.1C327.139 26.1 326.656 26.03 326.189 25.89C325.729 25.7433 325.336 25.5433 325.009 25.29L325.569 24.28C325.822 24.4933 326.129 24.6633 326.489 24.79C326.856 24.91 327.232 24.97 327.619 24.97C328.079 24.97 328.439 24.8767 328.699 24.69C328.966 24.4967 329.099 24.2367 329.099 23.91C329.099 23.5833 328.972 23.33 328.719 23.15C328.472 22.9633 328.092 22.87 327.579 22.87H326.939V21.98L328.529 20.09H325.349V19H330.119V19.87L328.419 21.89Z" fill="#BDBDBD"/>
<rect x="476" y="72" width="34" height="13" fill="#333333"/>
<path d="M484.485 76.1H482.165V82H480.875V76.1H478.565V75H484.485V76.1ZM487.886 75V82H486.586V76.09H485.106V75H487.886ZM492.195 82.1C491.635 82.1 491.135 81.96 490.695 81.68C490.255 81.3933 489.908 80.98 489.655 80.44C489.402 79.8933 489.275 79.2467 489.275 78.5C489.275 77.7533 489.402 77.11 489.655 76.57C489.908 76.0233 490.255 75.61 490.695 75.33C491.135 75.0433 491.635 74.9 492.195 74.9C492.755 74.9 493.255 75.0433 493.695 75.33C494.142 75.61 494.492 76.0233 494.745 76.57C494.998 77.11 495.125 77.7533 495.125 78.5C495.125 79.2467 494.998 79.8933 494.745 80.44C494.492 80.98 494.142 81.3933 493.695 81.68C493.255 81.96 492.755 82.1 492.195 82.1ZM492.195 80.97C492.695 80.97 493.088 80.7633 493.375 80.35C493.668 79.9367 493.815 79.32 493.815 78.5C493.815 77.68 493.668 77.0633 493.375 76.65C493.088 76.2367 492.695 76.03 492.195 76.03C491.702 76.03 491.308 76.2367 491.015 76.65C490.728 77.0633 490.585 77.68 490.585 78.5C490.585 79.32 490.728 79.9367 491.015 80.35C491.308 80.7633 491.702 80.97 492.195 80.97ZM501.025 80.9V82H495.865V81.13L498.645 78.49C498.958 78.19 499.168 77.93 499.275 77.71C499.388 77.4833 499.445 77.26 499.445 77.04C499.445 76.7133 499.335 76.4633 499.115 76.29C498.895 76.1167 498.571 76.03 498.145 76.03C497.431 76.03 496.885 76.2733 496.505 76.76L495.595 76.06C495.868 75.6933 496.235 75.41 496.695 75.21C497.161 75.0033 497.681 74.9 498.255 74.9C499.015 74.9 499.621 75.08 500.075 75.44C500.528 75.8 500.755 76.29 500.755 76.91C500.755 77.29 500.675 77.6467 500.515 77.98C500.355 78.3133 500.048 78.6933 499.595 79.12L497.725 80.9H501.025ZM504.926 77.68C505.386 77.68 505.799 77.77 506.166 77.95C506.532 78.1233 506.819 78.3733 507.026 78.7C507.232 79.0267 507.336 79.4033 507.336 79.83C507.336 80.2833 507.222 80.6833 506.996 81.03C506.769 81.37 506.462 81.6333 506.076 81.82C505.689 82.0067 505.256 82.1 504.776 82.1C503.816 82.1 503.069 81.8 502.536 81.2C502.009 80.6 501.746 79.74 501.746 78.62C501.746 77.8333 501.889 77.1633 502.176 76.61C502.462 76.05 502.862 75.6267 503.376 75.34C503.896 75.0467 504.496 74.9 505.176 74.9C505.536 74.9 505.872 74.94 506.186 75.02C506.506 75.0933 506.782 75.2033 507.016 75.35L506.536 76.33C506.189 76.1033 505.746 75.99 505.206 75.99C504.532 75.99 504.006 76.1967 503.626 76.61C503.246 77.0233 503.056 77.62 503.056 78.4V78.41C503.262 78.17 503.526 77.99 503.846 77.87C504.166 77.7433 504.526 77.68 504.926 77.68ZM504.706 81.08C505.112 81.08 505.442 80.9733 505.696 80.76C505.949 80.54 506.076 80.25 506.076 79.89C506.076 79.5233 505.949 79.2333 505.696 79.02C505.442 78.8067 505.102 78.7 504.676 78.7C504.256 78.7 503.912 78.8133 503.646 79.04C503.386 79.2667 503.256 79.5533 503.256 79.9C503.256 80.24 503.382 80.5233 503.636 80.75C503.896 80.97 504.252 81.08 504.706 81.08Z" fill="#BDBDBD"/>
<circle cx="179" cy="202" r="9.5" fill="#EB5757" stroke="white" stroke-width="3"/>
</g>
</svg>
