<svg width="31" height="26" viewBox="0 0 31 26" fill="none" xmlns="http://www.w3.org/2000/svg">
<path d="M28.2577 0C29.0239 0 29.7012 0.298883 30.1406 0.830898C30.58 1.36291 30.7456 2.08448 30.6008 2.83686L26.7804 22.6949C26.6356 23.4473 26.1924 24.1689 25.5483 24.7009C24.9042 25.2329 24.1119 25.5318 23.3457 25.5318H3.12347C2.35729 25.5318 1.67999 25.2329 1.24057 24.7009C0.801154 24.1689 0.635612 23.4473 0.780362 22.6949L4.60083 2.83686C4.90373 1.2624 6.43216 0 8.0355 0H28.2577ZM14.1779 10.0425C14.1353 10.1134 13.2787 12.5389 9.87913 16.695C9.87913 16.695 4.32964 19.2623 5.1574 21.1914C5.83592 22.6949 8.51943 21.1346 11.2738 17.4042C11.2738 17.4042 14.0773 16.4964 17.6076 16.2411C17.6076 16.2411 22.7083 18.7091 23.9643 16.085C25.2175 13.4751 19.9517 14.0425 19.0043 14.312C19.0043 14.312 16.4233 12.4113 16.2664 9.773C16.2664 9.773 18.9738 4.18438 16.4324 4.2553C13.891 4.32622 14.0065 8.68081 14.1779 10.0425ZM15.0613 11.5319C15.1047 11.5319 15.4128 13.234 17.1228 15.007C17.1228 15.007 13.6317 15.6595 11.975 16.312C11.975 16.312 13.897 13.8297 15.0613 11.5319ZM19.984 15.3758C20.8627 15.163 23.2915 15.6028 23.1175 16.0567C22.9119 16.5247 19.984 15.3758 19.984 15.3758ZM9.27868 18.0141C8.18292 19.7304 6.6728 20.8226 6.34331 20.8084C6.01381 20.7942 7.79104 18.5389 9.27868 18.0141ZM15.7081 8.17017C15.7073 8.09925 15.7713 5.0638 16.2948 5.12054C17.0584 5.20565 15.7217 8.09925 15.7081 8.17017Z" fill="white"/>
</svg>
