<svg width="90" height="73" viewBox="0 0 90 73" fill="none" xmlns="http://www.w3.org/2000/svg">
<path fill-rule="evenodd" clip-rule="evenodd" d="M90 16.8555H0V72.7705H90V16.8555ZM16.1367 30.8366C16.1367 36.6443 23.5942 36.5751 26.3613 36.5495C26.5243 36.548 26.6709 36.5466 26.7989 36.5466H44.3851V28.3812H31.2836V30.2964H37.3304V34.228H26.7989C26.7989 34.228 23.07 34.1772 23.07 30.2964C23.07 26.4155 26.7989 26.3147 26.7989 26.3147H44.3851V23.492H26.7989C26.7989 23.492 16.1388 22.9284 16.1388 28.9491L16.1367 30.8366ZM46.5016 26.3147V23.4922H73.8631V26.3147H64.1378V36.5466H56.9829V26.3147H46.5016ZM63.1092 55.2805L63.795 55.2659C63.795 55.2659 70.7244 54.757 70.7244 46.5268C70.7244 38.0836 59.8213 38.5099 59.8213 38.5099H18.8374V44.0563C18.8374 44.0563 22.6026 43.9724 22.6026 48.5276V57.4116C22.601 57.8931 22.5004 58.369 22.307 58.8099C22.1136 59.2508 21.8316 59.6472 21.4784 59.9744C21.1252 60.3015 20.7085 60.5526 20.2542 60.7118C19.7998 60.871 19.3176 60.935 18.8374 60.8999C18.8242 60.8999 18.8374 66.3632 18.8374 66.3632L38.2975 66.3614V60.8697C35.1802 60.8697 35.2127 59.1108 35.2289 58.2302C35.2311 58.1139 35.2329 58.0129 35.2272 57.9333V55.8322H46.6871L57.5806 66.3632H73.8054V60.8697C73.8054 60.8697 69.0825 61.1807 65.7023 57.7992C63.5716 55.6681 63.1092 55.2805 63.1092 55.2805ZM57.9139 47.2317C57.9139 48.8166 55.8826 48.6972 55.8826 48.6972L35.3328 48.6936L35.317 45.8292L55.8826 45.8328C55.8826 45.8328 57.9139 45.675 57.9139 47.2317Z" fill="white"/>
<path d="M60.5389 53.9901H59.0078C59.0078 53.9901 61.4755 56.0802 64.261 58.8671C67.316 61.923 72.1092 62.4583 72.1092 62.4583V64.5749H58.3024L47.4686 53.9901H33.6113V58.7787C33.6113 58.7787 33.6113 62.4583 36.5842 62.4583V64.5749H20.6107C20.6107 64.5749 20.5979 62.4583 20.6107 62.4583C24.1381 62.4583 24.1381 58.7787 24.1381 58.7787V47.2363C24.1381 43.2547 20.6107 42.7505 20.6107 42.7505V40.4824H59.0078C59.0078 40.4824 68.8339 39.8559 68.8339 47.2363C68.8339 54.4305 60.5389 53.9901 60.5389 53.9901ZM56.4785 50.4572C56.4785 50.4572 59.6028 50.4572 59.6028 47.2317C59.6028 44.0053 56.3778 44.0563 56.3778 44.0563H33.6014V50.4572H56.4785Z" fill="#E9242C"/>
<path d="M18.6853 0.229492H21.7613C21.8012 0.229479 21.8407 0.237332 21.8776 0.2526C21.9145 0.267869 21.948 0.290255 21.9762 0.318479C22.0045 0.346703 22.0268 0.380212 22.0421 0.417091C22.0574 0.453969 22.0652 0.493495 22.0652 0.53341V12.3548C22.0652 12.3947 22.0574 12.4342 22.0421 12.4711C22.0268 12.508 22.0044 12.5415 21.9762 12.5697C21.948 12.5979 21.9145 12.6202 21.8776 12.6355C21.8407 12.6507 21.8012 12.6585 21.7613 12.6585H18.6853C18.6454 12.6585 18.6059 12.6507 18.5691 12.6354C18.5322 12.6202 18.4987 12.5978 18.4705 12.5696C18.4423 12.5414 18.4199 12.5079 18.4046 12.4711C18.3893 12.4342 18.3815 12.3947 18.3815 12.3548V0.53341C18.3815 0.452817 18.4135 0.375528 18.4705 0.318536C18.5275 0.261545 18.6047 0.229516 18.6853 0.229492ZM1.13375 0.330723H5.7573C6.00191 0.337733 6.24133 0.402882 6.45577 0.520781C6.67021 0.638679 6.85349 0.80594 6.99046 1.00873L12.7696 9.95966V0.634636C12.7696 0.554037 12.8016 0.476743 12.8586 0.419751C12.9156 0.362759 12.9929 0.330736 13.0735 0.330723H15.7084C15.7889 0.330748 15.8662 0.362777 15.9232 0.419768C15.9802 0.476758 16.0122 0.554045 16.0122 0.634636V12.456C16.0122 12.4959 16.0043 12.5354 15.9891 12.5723C15.9738 12.6091 15.9514 12.6426 15.9232 12.6708C15.895 12.699 15.8615 12.7214 15.8246 12.7366C15.7877 12.7519 15.7482 12.7597 15.7084 12.7597L11.2054 12.7643C10.9137 12.78 10.6228 12.7195 10.3615 12.5889C10.1002 12.4583 9.87724 12.262 9.71465 12.0193L4.11306 3.30182V12.456C4.11305 12.496 4.10516 12.5355 4.08987 12.5723C4.07457 12.6092 4.05216 12.6427 4.02391 12.6709C3.99567 12.6991 3.96214 12.7215 3.92525 12.7367C3.88836 12.752 3.84883 12.7598 3.80892 12.7597H1.13375C1.05316 12.7598 0.975843 12.7278 0.918814 12.6709C0.861786 12.6139 0.829714 12.5366 0.829651 12.456V0.634636C0.829707 0.554018 0.861769 0.476721 0.918792 0.419733C0.975815 0.362745 1.05313 0.33073 1.13375 0.330723ZM74.0798 0.330723L78.7439 0.328669C78.9887 0.336241 79.2281 0.401844 79.4426 0.520077C79.657 0.63831 79.8403 0.805791 79.9773 1.00873L85.7563 9.95966V0.634636C85.7564 0.554014 85.7884 0.476716 85.8455 0.419729C85.9025 0.362742 85.9798 0.330728 86.0604 0.330723H88.695C88.7756 0.330727 88.8529 0.36274 88.91 0.419727C88.967 0.476715 88.9991 0.554013 88.9991 0.634636V12.456C88.999 12.5366 88.967 12.6139 88.9099 12.6709C88.8529 12.7278 88.7756 12.7598 88.695 12.7597L84.1923 12.7579C83.901 12.7753 83.6102 12.7163 83.3486 12.5867C83.0871 12.4572 82.864 12.2615 82.7013 12.0193L77.0997 3.30182V12.456C77.0997 12.5366 77.0676 12.6139 77.0105 12.6709C76.9535 12.7278 76.8762 12.7598 76.7956 12.7597H74.0798C73.9992 12.7598 73.9219 12.7278 73.8649 12.6709C73.8078 12.6139 73.7758 12.5366 73.7757 12.456V0.634636C73.7758 0.554013 73.8078 0.476715 73.8649 0.419727C73.9219 0.36274 73.9992 0.330727 74.0798 0.330723ZM61.0515 7.69028H66.0963L64.0371 3.11328H63.1097L61.0515 7.69028ZM67.2358 10.2237H59.9115L58.9166 12.436C58.8761 12.5207 58.8141 12.5933 58.7369 12.6466C58.6596 12.6999 58.5697 12.732 58.4761 12.7397H55.4001C55.2319 12.7397 55.1571 12.6038 55.2328 12.436L60.5499 0.614326C60.5904 0.529567 60.6524 0.456919 60.7298 0.403632C60.8072 0.350345 60.8972 0.318283 60.9908 0.310646H66.1565C66.2501 0.318224 66.3401 0.350263 66.4175 0.403557C66.4949 0.456852 66.5569 0.529532 66.5974 0.614326L71.9144 12.436C71.9901 12.6038 71.9153 12.7397 71.7471 12.7397H68.6716C68.578 12.7321 68.488 12.7 68.4106 12.6467C68.3332 12.5934 68.2712 12.5208 68.2307 12.436L67.2358 10.2237ZM37.7298 3.06655H28.6031C28.5499 3.0665 28.4972 3.07694 28.448 3.09728C28.3988 3.11762 28.3541 3.14745 28.3165 3.18507C28.2788 3.22269 28.249 3.26737 28.2286 3.31654C28.2082 3.36571 28.1978 3.41841 28.1978 3.47164V4.17341C28.1978 4.27898 28.239 4.38038 28.3127 4.456C28.3864 4.53163 28.4866 4.57551 28.5922 4.57831C28.5922 4.58037 36.1259 5.28732 36.1642 5.31603C36.8312 5.47058 37.4261 5.84693 37.8514 6.38351C38.2766 6.92009 38.5072 7.58513 38.5054 8.26981V9.62404C38.5054 11.3316 37.6315 12.7602 34.6732 12.7602H24.8989C24.8651 12.7603 24.8316 12.7537 24.8003 12.7409C24.7691 12.728 24.7407 12.7091 24.7167 12.6853C24.6928 12.6614 24.6738 12.6331 24.6608 12.6019C24.6478 12.5707 24.641 12.5373 24.641 12.5035V10.2382C24.6412 10.17 24.6685 10.1048 24.7169 10.0567C24.7652 10.0087 24.8307 9.98178 24.8989 9.98198H34.5072C34.6129 9.97906 34.7133 9.93502 34.787 9.85924C34.8607 9.78345 34.9019 9.6819 34.9019 9.57618V8.62182C34.9019 8.56857 34.8915 8.51585 34.8711 8.46665C34.8507 8.41746 34.8209 8.37276 34.7832 8.33511C34.7456 8.29747 34.7009 8.26761 34.6517 8.24726C34.6025 8.2269 34.5498 8.21645 34.4965 8.21649L27.5097 7.61917C27.4918 7.61768 27.4741 7.61431 27.4568 7.60913C27.0902 7.61235 26.7265 7.5433 26.3865 7.40592C26.0465 7.26855 25.737 7.06554 25.4755 6.8085C25.214 6.55146 25.0057 6.24542 24.8625 5.90786C24.7193 5.5703 24.6441 5.20784 24.641 4.84118V3.46664C24.6409 2.6474 24.9614 1.86064 25.5338 1.27455C26.1062 0.688459 26.8852 0.349545 27.7042 0.330256L37.7298 0.33049C37.798 0.330357 37.8635 0.357323 37.9119 0.405461C37.9602 0.453598 37.9875 0.518967 37.9877 0.587198V2.81007C37.9876 2.84385 37.9809 2.87728 37.9678 2.90846C37.9548 2.93963 37.9358 2.96794 37.9119 2.99176C37.8879 3.01558 37.8595 3.03445 37.8283 3.04728C37.797 3.06011 37.7636 3.06666 37.7298 3.06655ZM53.5303 3.06655H44.4033C44.2959 3.06653 44.1928 3.10919 44.1168 3.18516C44.0408 3.26112 43.998 3.36417 43.998 3.47164V4.17341C43.998 4.27901 44.0393 4.38041 44.113 4.45603C44.1867 4.53165 44.287 4.57552 44.3926 4.57831C44.3926 4.58037 51.9261 5.28732 51.9649 5.31603C52.6319 5.47062 53.2266 5.847 53.6519 6.38357C54.0771 6.92015 54.3077 7.58516 54.3058 8.26981V9.62404C54.3058 11.3316 53.4317 12.7602 50.4739 12.7602H40.6991C40.6309 12.7603 40.5654 12.7333 40.5171 12.6852C40.4688 12.637 40.4416 12.5717 40.4414 12.5035V10.2382C40.4417 10.1701 40.4689 10.1049 40.5173 10.0568C40.5656 10.0088 40.6309 9.98187 40.6991 9.98198H50.3079C50.4136 9.97905 50.5139 9.935 50.5876 9.85921C50.6612 9.78342 50.7024 9.68187 50.7023 9.57618V8.62182C50.7024 8.56858 50.6919 8.51585 50.6715 8.46666C50.6512 8.41747 50.6213 8.37277 50.5837 8.33512C50.546 8.29748 50.5013 8.26762 50.4521 8.24727C50.403 8.22691 50.3502 8.21645 50.297 8.21649L43.3102 7.61917C43.2922 7.6177 43.2745 7.61433 43.2573 7.60913C42.8906 7.61233 42.5269 7.54326 42.187 7.40587C41.847 7.26849 41.5375 7.06548 41.276 6.80845C41.0145 6.55141 40.8062 6.24538 40.663 5.90783C40.5198 5.57028 40.4445 5.20783 40.4414 4.84118V3.46664C40.4414 2.6474 40.7618 1.86064 41.3342 1.27455C41.9066 0.68846 42.6856 0.349546 43.5046 0.330256L53.5303 0.33049C53.5984 0.330415 53.6639 0.357409 53.7122 0.405542C53.7605 0.453675 53.7877 0.51901 53.7879 0.587198V2.81007C53.7878 2.84383 53.7811 2.87724 53.7681 2.9084C53.7551 2.93956 53.7361 2.96786 53.7122 2.99168C53.6883 3.0155 53.6599 3.03437 53.6287 3.04721C53.5975 3.06006 53.564 3.06663 53.5303 3.06655Z" fill="white"/>
</svg>
